<svg xmlns="http://www.w3.org/2000/svg" xmlns:xlink="http://www.w3.org/1999/xlink" viewBox="0 0 5000 5000"><defs><style>.f6dd5b7d-3661-460d-8b21-2f4f07745bea{fill:url(#f034390e-56bb-4817-ba57-126dbd88e5d3);}.a0dcb535-f80a-4617-9ea1-796cb4d21f6b,.a1166ca2-6ce5-4675-91fe-81970b2376ac,.a39fcda2-9245-459e-9ab5-08e41d896bdd,.a9d6df3e-c9c6-4523-a1e4-18bf44ba757c,.a9e0cf32-56ed-42a4-bdae-3825d9fc527a,.b318ad63-678f-424d-be25-47779acc8b04,.b8d8a1bd-79fe-4e5b-b0c9-d773957c5537,.ba1a598d-07fb-4d55-a4ea-1acdb0c5d54c,.bdd09289-8704-4872-b545-3d1429d0af70,.ec703842-d6ac-4329-8624-fe89a5bb0f4d,.ff8b7d1b-6263-4102-a689-5a0f14146993{fill:#bcb489;}.ba1a598d-07fb-4d55-a4ea-1acdb0c5d54c{opacity:0.61;}.ff8b7d1b-6263-4102-a689-5a0f14146993{opacity:0.29;}.a39fcda2-9245-459e-9ab5-08e41d896bdd{opacity:0.36;}.b8d8a1bd-79fe-4e5b-b0c9-d773957c5537{opacity:0.37;}.a1166ca2-6ce5-4675-91fe-81970b2376ac{opacity:0.32;}.b318ad63-678f-424d-be25-47779acc8b04{opacity:0.24;}.bdd09289-8704-4872-b545-3d1429d0af70{opacity:0.27;}.a9d6df3e-c9c6-4523-a1e4-18bf44ba757c{opacity:0.35;}.a9e0cf32-56ed-42a4-bdae-3825d9fc527a{opacity:0.31;}.a0dcb535-f80a-4617-9ea1-796cb4d21f6b{opacity:0.33;}.a69acd6f-b68d-4b5b-a8e0-ebcd7462045a{fill:#f9e380;}.bb8ae5e0-3ae6-4b44-9ace-5557c30d9d0c{fill:#f6da6b;}.a91f33ed-f679-40cf-a784-fa8ff8433601{fill:#00110e;}.b75d845e-713e-46b2-b5f8-7d9adeb7fffe{fill:#122b26;}.b6eeb348-ef61-4323-a357-02fafb6c6cdd{fill:#001c17;}</style><radialGradient id="f034390e-56bb-4817-ba57-126dbd88e5d3" cx="2500" cy="2500" r="2500" gradientUnits="userSpaceOnUse"><stop offset="0" stop-color="#fff"/><stop offset="0.24" stop-color="#aebcb5"/><stop offset="0.46" stop-color="#627e70"/><stop offset="0.54" stop-color="#4f695a"/><stop offset="0.75" stop-color="#243b29"/><stop offset="0.91" stop-color="#0a1e0b"/><stop offset="1" stop-color="#001300"/></radialGradient></defs><title>City</title><g id="b1a3daa0-da72-4b99-8689-1df90b1131c2" data-name="Layer 1"><rect class="f6dd5b7d-3661-460d-8b21-2f4f07745bea" width="5000" height="5000"/></g><g id="a8758e18-74ee-4a71-8e9e-1c504ed37dbf" data-name="Layer 2"><circle class="ba1a598d-07fb-4d55-a4ea-1acdb0c5d54c" cx="779.1" cy="420.6" r="13.2"/><circle class="ec703842-d6ac-4329-8624-fe89a5bb0f4d" cx="1002.2" cy="313.6" r="17.3"/><circle class="ec703842-d6ac-4329-8624-fe89a5bb0f4d" cx="966.9" cy="399.4" r="10.2"/><circle class="ff8b7d1b-6263-4102-a689-5a0f14146993" cx="343.7" cy="146.5" r="9.9"/><circle class="ec703842-d6ac-4329-8624-fe89a5bb0f4d" cx="214.1" cy="191" r="12.3" transform="translate(-43.9 316.5) rotate(-67.7)"/><circle class="ec703842-d6ac-4329-8624-fe89a5bb0f4d" cx="1027.1" cy="135.2" r="13.6"/><circle class="ec703842-d6ac-4329-8624-fe89a5bb0f4d" cx="1208.4" cy="263.8" r="9.1" transform="translate(-28.3 284.7) rotate(-13.3)"/><circle class="ba1a598d-07fb-4d55-a4ea-1acdb0c5d54c" cx="1292.3" cy="198.4" r="9.9"/><circle class="ec703842-d6ac-4329-8624-fe89a5bb0f4d" cx="1372.6" cy="389.2" r="8.9"/><circle class="ec703842-d6ac-4329-8624-fe89a5bb0f4d" cx="1375.2" cy="672.5" r="9.6" transform="translate(-72.8 1169.4) rotate(-45)"/><circle class="a39fcda2-9245-459e-9ab5-08e41d896bdd" cx="1062" cy="680.9" r="11.4"/><circle class="ba1a598d-07fb-4d55-a4ea-1acdb0c5d54c" cx="1225.2" cy="807.1" r="9.9" transform="translate(-152.7 303.1) rotate(-13.3)"/><circle class="ec703842-d6ac-4329-8624-fe89a5bb0f4d" cx="1091" cy="887.1" r="11.7" transform="translate(-174.6 274.4) rotate(-13.3)"/><circle class="a39fcda2-9245-459e-9ab5-08e41d896bdd" cx="1170.3" cy="953.1" r="9.6"/><circle class="ec703842-d6ac-4329-8624-fe89a5bb0f4d" cx="920" cy="1014.2" r="12.3"/><circle class="ec703842-d6ac-4329-8624-fe89a5bb0f4d" cx="691" cy="1032.7" r="9.6"/><circle class="ec703842-d6ac-4329-8624-fe89a5bb0f4d" cx="903" cy="1194.2" r="10.5"/><circle class="ec703842-d6ac-4329-8624-fe89a5bb0f4d" cx="870.3" cy="1239.2" r="7.7" transform="translate(-157.1 126.8) rotate(-7.6)"/><circle class="ec703842-d6ac-4329-8624-fe89a5bb0f4d" cx="3716.7" cy="497.5" r="22.8" transform="translate(-31.7 601.8) rotate(-9.2)"/><circle class="ec703842-d6ac-4329-8624-fe89a5bb0f4d" cx="1655.5" cy="873.5" r="10.5" transform="translate(-156.4 403.7) rotate(-13.3)"/><circle class="b8d8a1bd-79fe-4e5b-b0c9-d773957c5537" cx="1645" cy="753.7" r="11.1" transform="translate(-51.2 1383.9) rotate(-45)"/><circle class="ec703842-d6ac-4329-8624-fe89a5bb0f4d" cx="2162.6" cy="485.2" r="11.7" transform="translate(-53.6 509.8) rotate(-13.3)"/><circle class="ba1a598d-07fb-4d55-a4ea-1acdb0c5d54c" cx="2191.3" cy="630.6" r="10.5" transform="translate(195.9 1734.2) rotate(-45)"/><circle class="ec703842-d6ac-4329-8624-fe89a5bb0f4d" cx="2330.8" cy="118.8" r="10.2"/><circle class="ec703842-d6ac-4329-8624-fe89a5bb0f4d" cx="2639.6" cy="97.5" r="10.1" transform="translate(48.2 609.1) rotate(-13.3)"/><circle class="a1166ca2-6ce5-4675-91fe-81970b2376ac" cx="2683.7" cy="263" r="10.1" transform="translate(11.4 623.6) rotate(-13.3)"/><circle class="a1166ca2-6ce5-4675-91fe-81970b2376ac" cx="2611" cy="514.2" r="11.4"/><circle class="ba1a598d-07fb-4d55-a4ea-1acdb0c5d54c" cx="2451.8" cy="837.8" r="10.5" transform="translate(125.7 1979.1) rotate(-45)"/><circle class="a1166ca2-6ce5-4675-91fe-81970b2376ac" cx="2316.6" cy="807.6" r="9.9"/><circle class="ec703842-d6ac-4329-8624-fe89a5bb0f4d" cx="2231.4" cy="807.6" r="9.1"/><circle class="b318ad63-678f-424d-be25-47779acc8b04" cx="1910.4" cy="1235.8" r="12"/><circle class="ec703842-d6ac-4329-8624-fe89a5bb0f4d" cx="2101.8" cy="1133.4" r="8.6"/><circle class="ec703842-d6ac-4329-8624-fe89a5bb0f4d" cx="2330.2" cy="1055.9" r="10.2"/><circle class="ba1a598d-07fb-4d55-a4ea-1acdb0c5d54c" cx="2386.3" cy="1264.2" r="11.7" transform="translate(-226.6 582.1) rotate(-13.3)"/><circle class="ec703842-d6ac-4329-8624-fe89a5bb0f4d" cx="991.3" cy="1533" r="11.4"/><circle class="ec703842-d6ac-4329-8624-fe89a5bb0f4d" cx="884.5" cy="1745.7" r="10.7"/><circle class="ec703842-d6ac-4329-8624-fe89a5bb0f4d" cx="1227.7" cy="1490.6" r="11.5"/><circle class="ba1a598d-07fb-4d55-a4ea-1acdb0c5d54c" cx="1566.4" cy="1509.5" r="8.4" transform="translate(-608.6 1549.7) rotate(-45)"/><circle class="ec703842-d6ac-4329-8624-fe89a5bb0f4d" cx="795" cy="2335.8" r="10.8" transform="translate(-323.7 136.6) rotate(-8.2)"/><circle class="ec703842-d6ac-4329-8624-fe89a5bb0f4d" cx="1085.4" cy="2215.1" r="12"/><circle class="ec703842-d6ac-4329-8624-fe89a5bb0f4d" cx="1239.7" cy="2211.7" r="15.4" transform="translate(-1200.8 1524.4) rotate(-45)"/><circle class="ec703842-d6ac-4329-8624-fe89a5bb0f4d" cx="1095.6" cy="2035.8" r="8.6"/><circle class="ec703842-d6ac-4329-8624-fe89a5bb0f4d" cx="1535.5" cy="1996.3" r="9.5" transform="translate(-417.6 406.2) rotate(-13.3)"/><circle class="ba1a598d-07fb-4d55-a4ea-1acdb0c5d54c" cx="1661.9" cy="2085.4" r="11.7" transform="translate(-987.9 1785.9) rotate(-45)"/><circle class="ba1a598d-07fb-4d55-a4ea-1acdb0c5d54c" cx="1983.7" cy="1817.5" r="10.1" transform="translate(-364.5 504.4) rotate(-13.3)"/><circle class="bdd09289-8704-4872-b545-3d1429d0af70" cx="2132.6" cy="1717.5" r="8.4" transform="translate(-589.8 2011) rotate(-45)"/><circle class="ec703842-d6ac-4329-8624-fe89a5bb0f4d" cx="2082.6" cy="1677.4" r="9.9"/><circle class="ec703842-d6ac-4329-8624-fe89a5bb0f4d" cx="2117" cy="2014.6" r="8.8" transform="translate(-804.5 2087) rotate(-45)"/><circle class="ec703842-d6ac-4329-8624-fe89a5bb0f4d" cx="1857.5" cy="2497.1" r="10.7" transform="translate(-524 493.6) rotate(-13.3)"/><circle class="ec703842-d6ac-4329-8624-fe89a5bb0f4d" cx="1911.6" cy="2623.5" r="13.6" transform="translate(-551.6 509.4) rotate(-13.3)"/><circle class="ec703842-d6ac-4329-8624-fe89a5bb0f4d" cx="819.4" cy="2879.5" r="13.6"/><circle class="b8d8a1bd-79fe-4e5b-b0c9-d773957c5537" cx="1327.8" cy="2805.1" r="9.3"/><circle class="ec703842-d6ac-4329-8624-fe89a5bb0f4d" cx="2116.8" cy="1407.4" r="10.9"/><circle class="ec703842-d6ac-4329-8624-fe89a5bb0f4d" cx="2412.9" cy="1614.2" r="11.9" transform="translate(-227.4 407.3) rotate(-9.2)"/><circle class="ba1a598d-07fb-4d55-a4ea-1acdb0c5d54c" cx="2530.2" cy="1878.6" r="9.1" transform="translate(-363.9 631.6) rotate(-13.3)"/><circle class="ec703842-d6ac-4329-8624-fe89a5bb0f4d" cx="2590" cy="1849.2" r="9.3"/><circle class="ec703842-d6ac-4329-8624-fe89a5bb0f4d" cx="2402.9" cy="2095.4" r="12.3" transform="translate(-304.6 412) rotate(-9.2)"/><circle class="ec703842-d6ac-4329-8624-fe89a5bb0f4d" cx="2831.7" cy="2415.1" r="12.3"/><circle class="ec703842-d6ac-4329-8624-fe89a5bb0f4d" cx="3205.9" cy="2922.9" r="12.3" transform="translate(-426.8 551.3) rotate(-9.2)"/><circle class="ec703842-d6ac-4329-8624-fe89a5bb0f4d" cx="3626.8" cy="2057.1" r="12"/><circle class="ba1a598d-07fb-4d55-a4ea-1acdb0c5d54c" cx="3289.9" cy="2439.5" r="12"/><circle class="ec703842-d6ac-4329-8624-fe89a5bb0f4d" cx="3478" cy="1895.1" r="9.6"/><circle class="ec703842-d6ac-4329-8624-fe89a5bb0f4d" cx="3791.6" cy="1878.7" r="8.6"/><circle class="ba1a598d-07fb-4d55-a4ea-1acdb0c5d54c" cx="4144.4" cy="1692.6" r="9.1"/><circle class="ba1a598d-07fb-4d55-a4ea-1acdb0c5d54c" cx="3339.2" cy="1559.7" r="11.9"/><circle class="ba1a598d-07fb-4d55-a4ea-1acdb0c5d54c" cx="3041.8" cy="1933.6" r="11.9"/><circle class="b8d8a1bd-79fe-4e5b-b0c9-d773957c5537" cx="669.5" cy="3051.4" r="11.9" transform="translate(-481.9 147.3) rotate(-9.3)"/><circle class="ec703842-d6ac-4329-8624-fe89a5bb0f4d" cx="3164.3" cy="1240.3" r="9.5" transform="translate(-200.3 760.2) rotate(-13.3)"/><circle class="b8d8a1bd-79fe-4e5b-b0c9-d773957c5537" cx="3361.9" cy="1249.8" r="9.1"/><circle class="b8d8a1bd-79fe-4e5b-b0c9-d773957c5537" cx="2894.8" cy="1111.1" r="9.9"/><circle class="b8d8a1bd-79fe-4e5b-b0c9-d773957c5537" cx="3542.1" cy="2820.8" r="9.9" transform="translate(-406.1 603.8) rotate(-9.2)"/><circle class="ba1a598d-07fb-4d55-a4ea-1acdb0c5d54c" cx="3020" cy="756.8" r="9.9"/><circle class="ec703842-d6ac-4329-8624-fe89a5bb0f4d" cx="3099.6" cy="654" r="11.4"/><circle class="ba1a598d-07fb-4d55-a4ea-1acdb0c5d54c" cx="2818.6" cy="370.2" r="9.5" transform="translate(-9.6 657.5) rotate(-13.3)"/><circle class="ec703842-d6ac-4329-8624-fe89a5bb0f4d" cx="3105" cy="487.7" r="9.9"/><circle class="ec703842-d6ac-4329-8624-fe89a5bb0f4d" cx="3425.2" cy="161.3" r="10.7" transform="translate(54.6 791.3) rotate(-13.3)"/><circle class="a1166ca2-6ce5-4675-91fe-81970b2376ac" cx="1922.4" cy="208.2" r="10.1"/><circle class="ba1a598d-07fb-4d55-a4ea-1acdb0c5d54c" cx="114.6" cy="1860" r="9.5" transform="translate(-1281.7 625.8) rotate(-45)"/><circle class="ec703842-d6ac-4329-8624-fe89a5bb0f4d" cx="400.9" cy="1977.5" r="9.9" transform="translate(-312.5 90.1) rotate(-9.2)"/><circle class="ec703842-d6ac-4329-8624-fe89a5bb0f4d" cx="721.2" cy="1651.1" r="10.7"/><circle class="ec703842-d6ac-4329-8624-fe89a5bb0f4d" cx="3706.4" cy="226.6" r="10.3"/><circle class="a1166ca2-6ce5-4675-91fe-81970b2376ac" cx="3808.7" cy="244.2" r="7.6" transform="translate(45.8 881.6) rotate(-13.3)"/><circle class="ec703842-d6ac-4329-8624-fe89a5bb0f4d" cx="3987" cy="316.5" r="8" transform="translate(33.9 924.5) rotate(-13.3)"/><circle class="ba1a598d-07fb-4d55-a4ea-1acdb0c5d54c" cx="4088.7" cy="361.4" r="10"/><circle class="ec703842-d6ac-4329-8624-fe89a5bb0f4d" cx="4196.5" cy="263" r="16.7"/><circle class="ec703842-d6ac-4329-8624-fe89a5bb0f4d" cx="4175.5" cy="552.2" r="9.6"/><circle class="a9d6df3e-c9c6-4523-a1e4-18bf44ba757c" cx="4409.5" cy="496.6" r="8.5" transform="translate(2263.2 4380.4) rotate(-67.5)"/><circle class="ba1a598d-07fb-4d55-a4ea-1acdb0c5d54c" cx="4537.9" cy="326.6" r="8.4" transform="translate(46.4 1051.3) rotate(-13.3)"/><circle class="b8d8a1bd-79fe-4e5b-b0c9-d773957c5537" cx="4479.2" cy="276.6" r="12" transform="translate(13.5 721.1) rotate(-9.2)"/><circle class="ec703842-d6ac-4329-8624-fe89a5bb0f4d" cx="4786.7" cy="252.8" r="11.7" transform="translate(1223.2 3458.7) rotate(-45)"/><circle class="ec703842-d6ac-4329-8624-fe89a5bb0f4d" cx="4928.3" cy="100.6" r="12" transform="translate(2949.4 4615.3) rotate(-67.5)"/><circle class="b8d8a1bd-79fe-4e5b-b0c9-d773957c5537" cx="4955.2" cy="335.5" r="11.1" transform="translate(55.5 1147.4) rotate(-13.3)"/><circle class="ba1a598d-07fb-4d55-a4ea-1acdb0c5d54c" cx="4982" cy="466.7" r="13.3" transform="translate(1129.2 3659.5) rotate(-45)"/><circle class="ba1a598d-07fb-4d55-a4ea-1acdb0c5d54c" cx="4804.6" cy="861.1" r="12.3" transform="translate(-69.3 1126.9) rotate(-13.3)"/><circle class="a9e0cf32-56ed-42a4-bdae-3825d9fc527a" cx="4616.2" cy="1051" r="9.3"/><circle class="ba1a598d-07fb-4d55-a4ea-1acdb0c5d54c" cx="466.4" cy="1533" r="8.4"/><circle class="ec703842-d6ac-4329-8624-fe89a5bb0f4d" cx="249.3" cy="2436.1" r="11.7" transform="translate(-1649.6 889.8) rotate(-45)"/><circle class="b8d8a1bd-79fe-4e5b-b0c9-d773957c5537" cx="417.8" cy="2518.8" r="11.1" transform="translate(-1658.7 1033.2) rotate(-45)"/><circle class="ba1a598d-07fb-4d55-a4ea-1acdb0c5d54c" cx="934.6" cy="2597.8" r="11.1" transform="translate(-1563.2 1421.7) rotate(-45)"/><circle class="ba1a598d-07fb-4d55-a4ea-1acdb0c5d54c" cx="444.7" cy="2650" r="13.3" transform="translate(-593.6 171.7) rotate(-13.2)"/><circle class="a0dcb535-f80a-4617-9ea1-796cb4d21f6b" cx="764.6" cy="2399.5" r="13.3" transform="translate(-1472.8 1243.4) rotate(-45)"/><circle class="ec703842-d6ac-4329-8624-fe89a5bb0f4d" cx="499.9" cy="2745.7" r="10.2"/><circle class="ec703842-d6ac-4329-8624-fe89a5bb0f4d" cx="718.6" cy="2878.6" r="9.3"/><circle class="ec703842-d6ac-4329-8624-fe89a5bb0f4d" cx="4431" cy="1192.6" r="8.6"/><circle class="ba1a598d-07fb-4d55-a4ea-1acdb0c5d54c" cx="4019.9" cy="1129.2" r="12.3"/><circle class="ec703842-d6ac-4329-8624-fe89a5bb0f4d" cx="3943.8" cy="1064.2" r="11.1" transform="translate(-139 934.6) rotate(-13.3)"/><circle class="a9d6df3e-c9c6-4523-a1e4-18bf44ba757c" cx="3756.9" cy="881.5" r="10.7"/><circle class="ba1a598d-07fb-4d55-a4ea-1acdb0c5d54c" cx="3563.5" cy="799.2" r="11.5"/><circle class="a39fcda2-9245-459e-9ab5-08e41d896bdd" cx="4055.7" cy="2505.6" r="11.5"/><circle class="ec703842-d6ac-4329-8624-fe89a5bb0f4d" cx="4614" cy="2228.7" r="10.8"/><circle class="ec703842-d6ac-4329-8624-fe89a5bb0f4d" cx="4314" cy="1970.2" r="9.7" transform="translate(-129.6 3627.5) rotate(-45)"/><circle class="ec703842-d6ac-4329-8624-fe89a5bb0f4d" cx="4245.1" cy="1941.8" r="8.2" transform="translate(-129.7 3570.5) rotate(-45)"/><circle class="ba1a598d-07fb-4d55-a4ea-1acdb0c5d54c" cx="4344.5" cy="1848.6" r="9.4"/><circle class="ba1a598d-07fb-4d55-a4ea-1acdb0c5d54c" cx="4464.6" cy="1822.2" r="10.3" transform="translate(19.1 3690.7) rotate(-45)"/><circle class="ec703842-d6ac-4329-8624-fe89a5bb0f4d" cx="4525.9" cy="1994.9" r="11"/><circle class="ec703842-d6ac-4329-8624-fe89a5bb0f4d" cx="4971.7" cy="1839.1" r="11.9"/><circle class="ba1a598d-07fb-4d55-a4ea-1acdb0c5d54c" cx="4911.9" cy="1334.8" r="11.5" transform="translate(494.8 3864.2) rotate(-45)"/><circle class="ec703842-d6ac-4329-8624-fe89a5bb0f4d" cx="4637" cy="2774.3" r="11.5"/><circle class="a9e0cf32-56ed-42a4-bdae-3825d9fc527a" cx="4715.2" cy="1309.5" r="11.9"/><circle class="ec703842-d6ac-4329-8624-fe89a5bb0f4d" cx="119.4" cy="373.5" r="12"/><circle class="b8d8a1bd-79fe-4e5b-b0c9-d773957c5537" cx="146.3" cy="608.4" r="11.1" transform="translate(-387.4 281.6) rotate(-45)"/><circle class="ba1a598d-07fb-4d55-a4ea-1acdb0c5d54c" cx="663" cy="687.4" r="11.1" transform="translate(-139.6 169.8) rotate(-13.2)"/><circle class="ba1a598d-07fb-4d55-a4ea-1acdb0c5d54c" cx="173.1" cy="739.6" r="13.3" transform="translate(-166.2 60) rotate(-13.4)"/><circle class="a0dcb535-f80a-4617-9ea1-796cb4d21f6b" cx="493" cy="489.1" r="13.3" transform="translate(-98.7 125.6) rotate(-13.2)"/><circle class="ec703842-d6ac-4329-8624-fe89a5bb0f4d" cx="228.4" cy="835.3" r="10.2"/><circle class="ec703842-d6ac-4329-8624-fe89a5bb0f4d" cx="571.2" cy="1232.9" r="10.2"/><circle class="ba1a598d-07fb-4d55-a4ea-1acdb0c5d54c" cx="173.1" cy="1146.4" r="12.3" transform="translate(-178.5 41.6) rotate(-9.1)"/><circle class="ba1a598d-07fb-4d55-a4ea-1acdb0c5d54c" cx="628.7" cy="1333.2" r="12.3"/><circle class="ec703842-d6ac-4329-8624-fe89a5bb0f4d" cx="447" cy="968.1" r="9.3" transform="translate(-618.6 1008.2) rotate(-67.4)"/><circle class="ba1a598d-07fb-4d55-a4ea-1acdb0c5d54c" cx="103" cy="1607.7" r="11.5"/><circle class="ec703842-d6ac-4329-8624-fe89a5bb0f4d" cx="4472.5" cy="1649.7" r="11.1"/><circle class="ec703842-d6ac-4329-8624-fe89a5bb0f4d" cx="3954" cy="1385.2" r="12.3"/><circle class="a9d6df3e-c9c6-4523-a1e4-18bf44ba757c" cx="3640" cy="1439.5" r="13.6"/></g><g id="bff26d38-1bfa-466a-9a1b-1694c0e46dba" data-name="Layer 3"><path class="a69acd6f-b68d-4b5b-a8e0-ebcd7462045a" d="M1062.7,2294.5a1417.6,1417.6,0,0,0,19.8,236.4c95.6,564.2,527.7,1014.1,1082.7,1135.8,17.6,3.8,35.3,7.4,53.2,10.6a1419.4,1419.4,0,0,0,249.1,22c477.8,0,899.9-238.5,1153.7-603a1404,1404,0,0,0,99.5-1437.4q-21.7-42.9-46.4-84A1397.6,1397.6,0,0,0,3531,1376.5h0c-257.7-298.1-638.5-486.8-1063.5-486.8-499.2,0-937.7,260.4-1186.8,652.9C1142.6,1759.9,1062.7,2017.8,1062.7,2294.5Z"/><path class="bb8ae5e0-3ae6-4b44-9ace-5557c30d9d0c" d="M1082.5,2530.9c95.6,564.2,527.7,1014.1,1082.7,1135.8-1.9-4.3-3.7-8.5-6.7-11.4-4.2,0-8.2.3-12.1.3-15.3,0-27.7-2.6-29.7-15.8,24.3-15.3,68.1-7.7,70.6-36.7,1.7-20.1-15.8-31.3-30.2-45.7-8.2-8.2-15.3-17.4-16.9-29.8-8.2-4.8-21.2-4.6-28.8-10.3,9.9-21.4,20.9-28.9,32.7-28.9,33.6,0,73.7,60.4,105.9,64.4h.6c8.2,0,14.1-5.1,19.8-9.4s11-9.3,18-9.3c4.6,0,9.9,1.7,16.4,6.2,4.5,8.8,2,19.2,0,28.8,27.1,21.5,72.3,25.2,96.6,49.8-6.8,16.6-23.2,20.3-43.5,20.3-15.3,0-32.7-2-50.6-2.3-23.4-.3-30.2-24.5-46.8-28.5a101.3,101.3,0,0,0-22.6-2.8c-32.8,0-66.1,16.3-63.6,44.6,7.7,15.5,43.8,2.8,44.4,26l-.3,1.1a1419.4,1419.4,0,0,0,249.1,22c477.8,0,899.9-238.5,1153.7-603a44.6,44.6,0,0,1,2.2-5,17.5,17.5,0,0,1-5.4.6c-7.9,0-11.3-4.8-13-10.8-4.5-55,21.5-79.6,54.8-96.6,8.8-48.8,65.3-74.2,75.7-122.8,6.8-30.8-8.2-59.9,2.5-96.6,5.7-3.1,8.8-9,15.9-10.4a25.8,25.8,0,0,1,4.8-.3,47.6,47.6,0,0,1,9.5,1.1,70.8,70.8,0,0,0,7.4.9,15.5,15.5,0,0,0,6.8-1.7c12.6-34,18.4-74.7,42.6-97.1a1414.3,1414.3,0,0,0-4-740.9c-10-9.4-18.3-19.4-30.7-23.7-8.8-59.8-34.5-103-60.2-146.3,14.4-31.1-4.6-54.7-9.4-87.8q-21.7-42.9-46.4-84c-7.1-5.3-13.3-10.7-17.3-16.2-6.2-9.1-7.6-20.4-13-28.6-14.7-23.1-40.4-32.5-49.4-52.2-25.4-3.1-39.3-18.4-49.7-36.5,33.2-24.9-18.1-41.5-13.9-65-257.7-298.1-638.5-486.8-1063.5-486.8-499.2,0-937.7,260.4-1186.8,652.9-4.6,17-3.5,32.4,8.6,45,24.3-12.2,49.4-28.8,70.3-49.5,9-9,13.3-23.1,23.7-31.3s24.3-10.4,33.9-18.4c12.4-10.4,16.7-26.5,28.5-38.9,22.3-23.2,54-42.7,87.9-42.7a84.8,84.8,0,0,1,8.7.6c0,22.3-21.2,24.3-33.6,34.2-15.8,11.9-25.4,28-47.2,36.5-8.4,3.1-24,2-34.1,7.6-22.9,13.6-13.9,47.5-18.1,73.2-6.8,41.3-41.5,68.8-73.1,86.6-17.8,30.2,4.2,58,15.5,81.2-6.5,18-24,40-10.5,63.4h1.4c16.1,0,20.7-13.5,35.4-13.7,5,0,9.8,1.8,14.6,4.3s9.6,5.2,14.4,5.2,6.8-1.4,10.2-5.1c2-16.4-24.6-17.1-28.8-33.8s1.1-37.4,20.9-41.7c7.3,3.7,4,18.7,15.3,18.7h.2c13-5.6,20.3-18.1,28.8-29.1,4.3-41.8,4.5-87.6,23.5-112.8,10.4-13.3,25.4-17,36.7-26s25.1-32.6,41.8-36.6h1.7c5.1,0,10.2,2.1,15.2,4.4s9.9,4.4,15,4.4a34.4,34.4,0,0,0,4.5-.5c18.6-22.4,29.7-43.8,46.9-65.6,11.3-13.8,25.1-22.2,36.7-33.8s20.6-34.2,39-39c10.2-2.3,20.9-2,31.6-2h7.6c16.1,0,32-1.8,44.6-13.6-1.9-9.6-3.9-19.2-2.5-31.7,6.8-11.8,27.1-24.8,44.1-24.8,10.7,0,20,5.4,23.7,19.8-.6,12.7-12.2,13.8-10.5,28.5,4-.3,7.7-.3,11.6-.3,13.9,0,27.4,1.7,40.7,3.1s26.5,3.1,40.1,3.1a126,126,0,0,0,17.2-.8c33.9,46,89.5,70.9,153.9,86.4-.5,12.7-.5,25.1,5.4,31.3,37.3,3.4,63.8,17.8,83.3,39.3-5.4,13.5-9.3,37.6,7.9,41.5,19.5-26.5,39-66.4,26.3-109.6,6.8-13.8,20-21.4,20.9-41.8,28.5-49.4,138.6-17.7,169.7-64.9-6.8-35.3-48.6-35.3-60.2-65.5,17.8-13.6,48.6-14.2,52.3-41.8-5.7-15.3-32.5-9.3-34.2-28.8a24,24,0,0,1,9.1-1.4,72.3,72.3,0,0,1,13.8,1.7,91.8,91.8,0,0,0,15,1.6,37.1,37.1,0,0,0,11.8-1.9c.6,12.7-11.3,13.2-7.6,28.8,20.6,4.8,36.2,14.1,57.3,18.3,13.3-5.9,19.2-19.2,38.7-19.2a44.8,44.8,0,0,1,8.5.9c8.7,8.2,5.9,28.8,15.5,36.4a43.7,43.7,0,0,0,11.3,1.7c20.4,0,34.8-15.8,51.4-22.3,2.8-18.7-17.8-13.9-13.3-34.2,13-17.5,53.4-7.4,73.2-18.2,15.2,22.9,31.3,45.2,57.6,57.3-20.1,20.9-6.8,62.3-34.2,78.4-17.8-9.4-38.6-15.6-64.9-16.2-9.9-5.1-8.5-21.6-22.9-21.6h-.8c-7.4,31.4,8.4,59.7,13.2,86.8,57.1,20.9,127.4,30.1,138.4,97.3,8.2,7,28,3.4,31.1,15.8,2.2,14.1-6.5,17.8-5.1,31.3,6.5,15.9,29.1,15.9,23.4,44.1,13.9,7.1,23.5,18.7,39.3,23.7,9.6-14.1,17.2-29.6,20.6-49.7,11.9-2.8,23.4-6.2,31.6-13-3.6-12.1-6.5-24.8-5.3-41.8,7.6-5.6,15.2-8.2,22.3-8.2,22.6,0,41.2,24.3,45.4,44.9,13-.8,26.6-2.2,38.7-2.2,27.2,0,46.7,7,34.8,43.8,7.9,16.6,24.3,14.1,38.9,26.2s22.3,37.3,39.3,41.8a32.9,32.9,0,0,0,7.6.9,99.5,99.5,0,0,0,15.3-1.7,81.2,81.2,0,0,1,16.9-2,22.7,22.7,0,0,1,4.5.3c7.7.8,16.7,8.7,26,10.1a48.8,48.8,0,0,0,9.3.9,63,63,0,0,0,10.8-.9c3.9-.2,7.3-.8,10.4-.8a24.5,24.5,0,0,1,6.2.8c13.3,5.7,15.3,22.1,26,34.2,41.2,9.3,87.8,23.5,130.5,39.3,13.6,4.8,23.7,17.2,36.7,20.6a10.9,10.9,0,0,0,4.5.6,52,52,0,0,0,6.8-.6,65.1,65.1,0,0,1,7.3-.6,23.3,23.3,0,0,1,4.8.6c12.7,4.5,17.5,15.8,31.4,15.8,10.1-.3,19.2-9.9,28.8-13.3,16.4-5.3,33-6.2,46.9-15.2,14.4,2.8,12.7,21.7,28.8,23.1,11-51.1-20.3-82.1-39.3-112.1,13.3-16.6,5.1-40.6,2.6-62.7,6.5-10.1,17.2-16.1,31.3-18.3,4.2,7.3,1.7,20.9,7.9,26.2,17,6,44.6,7.4,49.7,28.9,3.1,13.5-9,29.9-10.4,44-2.6,26,1.9,52.2,12.1,72.9s28.3,36.7,50.6,39.5c1.4,9.6,7,15.5,5.1,28.8-12.8,5.6-27.7,8.5-41.9,13,1.2,20.9-13.2,26.5-20.6,38.9,8.5,17.6,18.4,33.7,39,39.3,10.2-5.4,11.9-19.5,20.9-26,23.5,8.5,69.8,14.1,49.4,49.7a18.8,18.8,0,0,1-9.3,2.3,33.7,33.7,0,0,1-10.7-2c-3.4-.8-6.8-2-10.2-2a10.4,10.4,0,0,0-6.2,1.7c-14.4,4-7.1,29.1-20.9,33.7-20.9,7.6-36.7-.9-52,10.4-22.6,16.9-20.3,82.2-7.9,101.9,15,24.6,42.7,16.4,52,39.3-8.5,22.6-28.3,66.6-5.1,88.7,15.3-13.3,17.8-39.5,28.8-57.6,13,2,24.3,5.3,33.9,10.4,4.5,22.6,13,41.2,28.5,52.6,22.3-22.1,4.6-53.7,5.4-78.3,13.3,1.4,23.2,6.2,33.9,10.2,13.6,28.5,24.8,75.1,13.2,107-10.7-6.2-25.4-11.3-38.6-11.3s-23.7,4.5-29.4,16.7c0,15.5,14.7,16.9,15.5,31.3-7.6,13.3-9,32.5-25.9,36.7-6.8-53.3-49.2-71.1-68.1-112.3-15.3,19.1,4.8,35.2,7.9,51.9-7.1,16.7-19.2,27.7-41.5,28.8,3.6,48.3-5.1,110.4-49.1,110.4a60.5,60.5,0,0,1-19-3.1c0-34.4-51.9-48.8-57.3-78.5-3.1-16.9,10.7-36.1,18.4-54.8a63.3,63.3,0,0,0,7.3.6c37,0,55-41.5,31.6-68.3-14.7,1.4-27.4,2.5-38.9,2.5-17.3,0-32.5-2.5-49.8-10.5-11.8,3.7-11,20.1-21.1,26-10.2-5.9-20.7-11.3-36.5-11.3a62.9,62.9,0,0,0-10.1.9c-10.8-17.2-27.2-28.5-23.8-60.2a25.5,25.5,0,0,0-13.8-4.2c-10.7,0-20,7.6-33,9.6-11.1-7.6-.3-27.7-5.1-36.4-14.4-13.9-51.1-4.6-65.5-18.4,10.1-23.4,14.4-65.8-19.5-65.8a23.5,23.5,0,0,0-6.5.6,424.2,424.2,0,0,1-23.4-36.8c-.3-8.7,13.5-11.2,5-20.8a32.6,32.6,0,0,0-5.3-.3c-9.6,0-18.7,3.7-28.3,7.3s-20,7.1-32.5,7.1a52,52,0,0,1-9.6-.9c-7.3-12.4-20.9-17.2-37-17.2a113,113,0,0,0-28.5,4c5.9,42.9-13,78.7-7.6,112.4,1.4,8.7,10.4,18.6,13,28.8,9.6,36.1,23.1,56.5,28.8,88.7,2.5,13.5-4,26.5,7.9,38.9,6.5-5.9,11.6-8.2,16.1-8.2,9.6,0,16.9,9.6,30.8,10.7a18.3,18.3,0,0,0,4.5.4c11.9,0,24.9-4,38.7-8.2s28.8-8.8,44.3-8.8a61.3,61.3,0,0,1,14.1,1.4c9.4,12.4,19,20,35.9,20a74.3,74.3,0,0,0,16.7-1.9c14.1,9.9,15.8,37,7.9,54.8,22.9,43.2,33.3,99.1,83.3,114.9,7,28,32.2,76.8-10.4,83.6-17.6-8.8-7.4-32.5-2.6-47.2-11.6-5.6-22-8.7-32.5-8.7a53.5,53.5,0,0,0-24.8,6.2c-12.5,6.2-14.1,23.4-26.3,26.3a41.2,41.2,0,0,1-4.5.5c-4.8,0-8.8-2-12.7-3.9s-8.5-4-13.6-4a20.1,20.1,0,0,0-8.4,2c13.5,21.7,8.4,47.2-13,47.2-29.1,0-20.1-32.8-8-52.3-5.3-6.8-10.7-8.5-17.2-8.5s-14.4,2-24.2,3.1c-7.7-16.1-28-28.2-39.3-44.3-7.1-9.9-18.9-34.2-18.4-44.3s12.7-12.5,15.6-26.3c1.9-7.1-1.7-16.4,0-20.6,5.1-11.9,23.7-17.5,23.7-31.4-28-5.3-36.7-29.6-67.8-31.6-12.1,9.3-12.1,29.9-23.7,39.3-13.9-15.9-38.4-39.6-65.2-39.6l-5.1.3c-13.3,1.7-17.3,16.1-31.7,16.1l-2.5-.3c-10.5-4.2-9.3-20-13-31.3-14.1-16.1-32.2-16.6-33.6-36.4-2.6-26.2,23.2-25.1,23.2-44.5,0-13.6-28-41.1-39-44a41.7,41.7,0,0,0-9.9-1.1c-19.8,0-40.1,11.8-53.1,15h-1.1c-7.4,0-13.3-2.6-19.2-4.5s-11.9-4.8-18.4-4.8a8.9,8.9,0,0,0-2.8.3c-12.7,1.6-26.3,18.3-39.3,18.3a7.2,7.2,0,0,1-2.5-.3c-13.3-2.2-6.8-11.3-18.4-26s-28.5-24.2-31.3-41.8c-8.2-2.2-13.6-3.4-20.4-3.4a80.7,80.7,0,0,0-11,.9c-6.7,6.8-4.2,23.4-12.9,28.8-18.7-4.8-18.4-28.8-23.5-47.2-18.3-18-29.4-43.4-39.2-70.3-24.6-6.2-49.2-6.5-47.2-31.6,1.7-16.7,16.4-12.4,23.7-28.5-5.4-17.3-15.5-30-26.3-41.8-24.2,18.1,2.9,70.6-23.1,94a18.9,18.9,0,0,1-4,.3c-1.4,0-2.8-.3-3.9-.3h-4.5c-4.8,0-9.1.6-11.3,2.6-29.1,29.6,16.3,42.9,13.2,67.7-2.2,17.3-27.6,17.8-39.2,26.3-19.5,14.1-30.8,52.5-54.8,60.2-16.7-6.2-41.2-11.3-61.6-11.3a68.3,68.3,0,0,0-11.6.9c-31,51.4,12.8,114.1,33.9,154-38.9,33,39.9,67.8-2.8,104.5a38.7,38.7,0,0,0-15.2-2.8c-9.9,0-19,3.9-27.7,7.3s-17.2,7.8-25.7,7.8h-1.7c-12.4-4-22.9-12.1-36.2-12.1h-.5c-15.8,0-21.2,7.4-39,10.3-9.3-4.6-22.9-7.9-36.1-7.9s-24.6,2.8-32,10.2a67.7,67.7,0,0,0,2.6,23.7,21.7,21.7,0,0,0,10.4,2.3,69.9,69.9,0,0,0,10.8-1.2,90.9,90.9,0,0,1,11-1.1c5.1,0,9.3,1.1,12.4,5.1,3.4,39.8-30.8,42.4-62.4,46.9-10.7,17.2-28.8,27.2-36.7,47.2,19.2,20.3,44.6,35.1,65.2,54.8,6.8-5.1,13.3-7,19.8-7,17.5,0,33.3,16,48.3,30.7,22.3,22,42.6,40.5,41.5,75.9h.3c20.1,0,17.2-22.9,36.4-23.7,16.1,16.1,37.6,27.4,44.1,44.1,4.8,11.8,10.7,41.2,7.9,59.8-3.1,24.6-28.6,42.7-23.5,68.1,3.4,16.1,24.9,25.4,41.8,44.3,6.5,7.4,8.8,17,13,20.9,17.8,15.3,41.8,14.4,46.9,31.4,2.8,8.2-2.8,21.4-2.5,28.8,1.6,22.3,16.1,45.5,2.5,67.8-27.1,11-47.4,29.1-64.9,49.7,8.7,25.4,6.2,49.1-15.9,54.8a31.3,31.3,0,0,1-7,.8c-6.2,0-13.3-1.4-20.6-2.8s-15-2.9-22.1-2.9a39.8,39.8,0,0,0-13,2c-11.5,4.8-7.9,13.5-20.9,18.3a23.5,23.5,0,0,0-4.5-.4c-17.2,0-25.9,13.4-42.3,13.4h-3.7c-10.4,0-20.1-3.2-29.4-6.9s-19.7-7.2-29.9-7.2a39.5,39.5,0,0,0-10.2,1.2c-.3,27.1,26.3,27.7,23.5,57.5,28.2,5.4,41.8,26,36.7,65.2-13,7.7-17.3,23-34.2,26.3H2224c-4.2,0-8.4-1.4-12.4-2.8s-7.9-3.3-11-3.3-5.9,1.4-8.2,6.2c-5.4,19.2,41.8,8.4,41.8,31a20.7,20.7,0,0,1-11,2.8c-4.5,0-8.8-1.3-13-2.7s-9.6-3.1-15-3.1h-2.8c-14.1,2.5-23.7,14.7-36.4,15.8a62.6,62.6,0,0,1-7.3.8c-35.1,0-57.9-29.7-76.3-55.1,29.7-1.1,25.1-52.8,1.1-52.8a14.6,14.6,0,0,0-3.6.3c-24.3,5.1-6.3,37.6-8,52.5-1.1,8.8-11.3,17.3-10.4,25.7,1.1,12.7,18.6,18.1,15.8,34.2-16.4,12.4-50.3,7.1-68.1,18.4-7.9-7.9-18.6-10.2-30.2-10.2-5.6,0-11.5.6-17.5,1.1-1.1,0-1.9.3-3.1.3a155.8,155.8,0,0,1-19.7,1.7c-6.5,0-12.8-.8-18.1-3.4-17.8-8.2-10.5-26.8-28.6-34.2a121,121,0,0,1-14.4.9c-45.2,0-66.9-23.4-77.1-58.2-17.2-19.2-48.8-24.3-57.6-52.2,2.3-40.7-3.6-81.9,18.4-117.5-6.8-9.6-20.9-17.8-36.2-17.8a35,35,0,0,0-13.2,2.3c-9.9,13.5,13,13.6,7.6,31.4-4.8,3.7-6.5,10.8-13,13-9.6,0-13.6-5.7-23.2-5.7a43.1,43.1,0,0,0-5.6.9c-10.2,14.9,3.7,43.6-13,55.6h-2.5c-18.4,0-23.5,12.4-34.2,20.3-13.8,0-22.3-6.2-33.6-8.5-13.3-30.5-26.8-60.4-52.5-78.2a3.6,3.6,0,0,0-1.7-.3c-7.9,0-11.3,5.1-19,5.4-88.4-30.8-137.2-101.7-201-156.8-4.8-42.9-48-39.8-63-70.3-23.4-50-18.6-97.2-49.4-146.6-9.3-14.9-28.8-23.4-36.7-38.9s-7.7-32.5-18.1-47.2c-9.3-12.4-23.5-19.2-31.4-31.1C1098,2577.5,1094.2,2551.6,1082.5,2530.9Zm1320.9,50.4c-17.5,0-42.1-22.6-33.4-41,19.8,1.4,36.8,5.1,49.8,13.3C2421.4,2573.9,2413.5,2581.3,2403.4,2581.3Zm41.2-24.6a39.3,39.3,0,0,1-14.4-3.1c3.1-18.1,8.8-24,14.1-24s10.8,6.8,12.2,13.5S2454.8,2556.7,2444.6,2556.7Zm-414-1355.6c-7.4,21.5-21.2,35.9-36.5,49.7-17.7-9.3-25.7-28.2-47.1-34.1-18.9,3.1-24.3,17.2-39.2,23.7-22.1,9.3-48.3,5.9-72.9,13-18.7,5.4-41.5,24.8-57.3,38.9s-25.7,37.6-47.2,44.7a38.9,38.9,0,0,1-11.9,1.4l-5.6-.2h-5.7c-4.8,0-9.3.2-13.2,1.4-11.1,3-16.4,16.6-28.8,20.8a58.5,58.5,0,0,1-19.3,3.1c-11.3,0-22-3-35.5-5.6-13.3-20.6-.9-33.8,20.6-49.7,11.8-8.4,22.6-19.6,34.2-26.1,41.8-22.3,87.2-21,109.5-51.8,18.1-7.3,38.7.2,60.2-7.5,26.8-9.9,34.4-38.4,75.7-38.4h5.1c7.6,0,15.5,6.5,26.2,7.1,1.4.3,3.1-.5,4.8-.5,6.2,0,13.3-.9,20.4-1.7s16-2,24.2-2C2005.4,1187.3,2019.3,1190.1,2030.6,1201.1Zm402.1-99.4a53.1,53.1,0,0,0-15.5-2.5c-18.6,0-32.8,11.3-46.6,22.3s-27.4,22.6-44.9,22.6a32.6,32.6,0,0,1-5.4-.3c-11-1.4-20.3-14.4-31.3-15.8a70.2,70.2,0,0,0-8.2-.6c-13.8,0-27.9,4.2-42.4,8.5s-28.5,8.2-43.5,8.2a77.4,77.4,0,0,1-20.6-2.8c-5-20.1,1.7-37.9,20.6-42.1,1.2,0,2-.3,3.2-.3a28.6,28.6,0,0,1,9.8,2c3.1.5,6.3,1.4,9.6,1.4a15.1,15.1,0,0,0,3.7-.6c16.7-3.6,28-24.2,47.2-33.6,29.9-14.9,62.4-23.7,95.7-23.7a183.4,183.4,0,0,1,68.6,13.3C2436.7,1067.3,2436.7,1092.4,2432.7,1101.7Zm1015.6,386.6c5.1,22.1,19.7,38.7,18.3,60.2-1.9,32.2-49.9,72-70.5,75.7a61.3,61.3,0,0,1-7.4.5c-25.1,0-53.1-19.7-68.3-26.8-32.2-15.2-67-25.4-78.3-49.4-7.3-15.3-3.9-27.4-10.4-36.7-22.6-31.9-87.3-52.8-65.5-107,3.9-8.8,15.5-10.5,21.2-18.4,12.1-18.1,13.2-43.2,28.8-54.8,14.9-.6,23.4-7.3,33.5-13,13,8.8,32.8,21.5,48.9,21.5,11.3,0,20.6-6.2,24.6-24,24.3,7.9,44.3,19.7,51.9,44.3,27.7,9,44.4,35,65.3,60.2S3482.2,1467.2,3448.3,1488.3ZM3727.6,1749c-2,6.8-6.2,12.8-13,12.8h-.8c-10.2,0-7.7-12.2-12.2-17.8-4.2,1.1-8.2,2.2-11.6,2.2-11.6,0-20.3-6.5-25.1-14.7a39.3,39.3,0,0,1-3.7-8.8c-3.4-11.8-.3-23.7,11-23.7,4.3,0,9.6,1.7,16.4,5.9,8.5,5.7,11.3,24.3,15.6,28.9s19.4,7.3,22.8,14.4C3727.3,1748.4,3727.6,1748.7,3727.6,1749Zm57.6,510.9c5.1,0,10.7,1.7,15.5,3.9,3.4,13-3.9,18.1-12.4,18.1a20.7,20.7,0,0,1-13.6-5.1C3772.5,2263.8,3778.1,2259.9,3785.2,2259.9Zm-357,35.8h2c23.5,0,19.8,31.7,18.1,59.6a13.4,13.4,0,0,0,6.5,1.5c4.2,0,8.2-2.5,12.4-4.8s9.3-4.8,15.5-4.8h2c9.1,14.5,22.6,24.9,36.7,34.3,1.2,21.2-11.5,28.8-28.8,31.6-13.8-13.8-23.1-36.6-44.3-47.1-1.4-.5-3.1-.2-4.8-.2h-2.6c-3.1,0-5.9-.3-8.1-2C3418.9,2352.8,3393.2,2295.7,3428.2,2295.7ZM1949.8,3498.5c4.8-11.8,12.5-34.1,26.3-34.1,3.9,0,8.2,1.6,13,5.6,2.5,20.1-12.5,22.6-15.9,36.5,27.2,15.7,62.8,7.6,86.2,26.2,11.3,8.8,14.4,22.9,26.3,31.4,6.2-9.4,16.6-13.9,26.8-13.9,7.3,0,14.7,2.3,20,6.8,7.1,5.6,11.1,15.2,7.7,27.7a26.3,26.3,0,0,1-10.2,1.9c-13,0-25.7-8.4-36.7-12.4a74,74,0,0,1-36.2,9.1c-26.2,0-51.7-12.5-70.8-24.6C1975.8,3536.9,1971.6,3508.7,1949.8,3498.5Zm-2.8-138.1a53.8,53.8,0,0,1,6.8-1.1,57,57,0,0,1,7.3-.3c16.7,0,35.9,4.8,43.2,14.4a65.3,65.3,0,0,0,7.4.3c9.6,0,16.1-3.2,22.8-6.5s13.3-6.9,23.8-6.9h1.1c-4.2,24.2,12.7,36.6,28.8,49,1.1,13.5-2.5,21.9-7.9,28.3h-33.9c-10.4,0-20.6,1-28.8-1.3-11,1.7-6.2,18.2-15.8,24.7h-.6a8.8,8.8,0,0,1-8.2-5.3c-2.8-5.9-1.4-16.5-1.4-24.9C1972.7,3411.3,1958.3,3387.3,1947,3360.4Zm-684-431.7h1.4c17.8,0,26,10.1,37.9,16-.9,30.2,22.3,50,13.2,79h-.3C1277.4,3023.7,1256.8,2974.6,1263,2928.7Z"/></g><g id="ae973275-55cc-4f58-a247-8970fbe62842" data-name="Layer 4"><path class="a91f33ed-f679-40cf-a784-fa8ff8433601" d="M4918,3503v102h-39v-53h-48v31h-23v42h-38v-33h-55v-28h-38v-34.2H4655V3508h-28v21.7h-15.5l.3,34.3H4576v28h-8v28.5l-73.7-.6.2-165.9H4469v-81h-84v51h-43.2l-.4,190H4302v-95h-40V3303h-15v-55h-45v55h-36v72h-79.7l-29.4-8.5-41.9-12.9V3375h-59V3109l-78.8-82H3863V2840h-44v-44.7H3664v-74h-19v-55.1l-47.9.3-.2,54.6h-26.7l-.3,74.4H3491V3485h-87V2328.3L3286.7,2298l-5.3-138.5a41.7,41.7,0,0,0-2.5-73.9l-9.1-275-5.2-279.5-11.1,279.5-10.6,274.5a41.8,41.8,0,0,0-2.8,74.6l-4,137.2L3108,2331.1V3513H2995V2705h-8v-15h-11v15h-75v-75.2l-10,.2v75h-20v-10h-25v10h-85v-17h-10v-15h-15v32h-15v782.4l-7.2-13.7-52.6-101.1-28.2-.2V2517h-18v-8h-14v8h-28v-8h-29v8h-28v-51.2h-39V2517h-84v908.4l-32.1.6H2355v-62.8l-.9-768.3H2329v-8h-19v8h-9v-22h-20v22h-29v-8h-27v8h-21v-8h-19v8h-24v-30h-24v30h-18v832h-36V2109h-35v-70h-28v-56h-47.3L1953,1859l-19.7,124H1886v56h-33v70h-29V3130h-45V2524h-18v-21h-60v-52h-58v52h-60v21h-16v524h-24V2897h-96v123h-42V2730h-34v-78h-32v-29h-62v29h-48l-86,100.4V3018h-61.2l-23.8-27V2545.1l-29-.4V2526H971v-34H948v34H877.6v-90.3l-12.8-.3-.3,90.6H822v15.3l-28-.4V3050H760v152H738v376H668V3407H636V3281H555V3072H527v-23.9l-59-68.6V2932H432.7l.3-63.9H410.7V2763H394.7v105.2L372,2868v64H336v49l-49,57.1V3071H253v729H241v38H228V3451.3l-25.5-.3-33-80H152v-36.7l-49.4-.3-.4,37H79.7L47,3450H23v368H7V3446H0v727H5000V3503Z"/></g><g id="edcef705-a5e5-488a-9448-09991bf71857" data-name="Layer 5"><polygon class="b75d845e-713e-46b2-b5f8-7d9adeb7fffe" points="4803 3865 4803 3930 4705 3930 4705 3872 4641 3872 4641 3856 4609 3856 4609 3794 4538 3794 4538 3832 4502 3832 4502 3894 4462 3894 4462 3807 4425 3807 4425 3651 4126 3651 4126 3368 4090.4 3368 4061.1 3318 4047 3318 4047 3263 3941 3263 3941 3318 3924.6 3318 3899.7 3368 3869 3368 3869 3524 3799 3524 3799 3748 3708 3748 3708 3468 3691 3468 3691 3350 3657 3350 3657 2973 3642.6 2973 3610.2 2918 3473.7 2918 3446 2973 3429 2973 3429 3383 3355 3383 3355 3053 3213.5 3053 3124 3159.1 3124 3512 3097 3512 3097 3237 3068 3237 3068 3215 3006 3215 3006 3237 2982 3237 2982 2958 2940 2958 2940 2944 2899 2944 2899 2880 2835 2880 2835 2944 2799 2944 2799 2958 2757 2958 2757 3018 2723 3018 2723 2649 2695 2649 2695 2625 2581 2625 2581 2649 2489 2649 2489 2625 2375 2625 2375 2649 2353 2649 2353 3263 2315 3263 2315 2843 2053 2843 2053 3551 1976 3551 1976 3094 1920 3094 1920 3063 1790 3063 1790 3094 1735 3094 1735 3624 1635 3624 1635 2811 1541 2811 1541 2409 1473 2409 1473 2811 1380 2811 1380 3541 1306 3541 1306 3457 1186 3457 1186 3331 897 3331 897 3592 747 3592 747 3518 694 3518 694 3479 623 3479 623 3518 580 3518 580 3690 448 3690 448 3779 352 3779 352 3705 271 3705 271 3612 167 3612 167 3690 0 3690 0 5000 167 5000 187.2 5000 268.2 5000 271.2 5000 332.7 5000 352.2 5000 448.2 5000 467.7 5000 580.2 5000 583.2 5000 699.2 5000 746.7 5000 896.7 5000 924.7 5000 1175.7 5000 1186.2 5000 1280.7 5000 1306.2 5000 1379.6 5000 1420.1 5000 1604.6 5000 1634.6 5000 1735.1 5000 1795.1 5000 1898.6 5000 1976 5000 2053 5000 2160.6 5000 2232.6 5000 2315 5000 2353 5000 2473.4 5000 2686.1 5000 2723 5000 2757.1 5000 2816.6 5000 2974 5000 2981.6 5000 3018 5000 3097 5000 3249 5000 3249 4999 3348 4999 3348 5000 3429 5000 3468.9 5000 3505.5 5000 3657 5000 3708 5000 3708 4999 3799 4999 3799 5000 3868.5 5000 4001 5000 4111 5000 4126 5000 4425 5000 4502 5000 4516.5 5000 4538.5 5000 4570.2 5000 4593.5 5000 4600.5 5000 4609 5000 4640.7 5000 4654 5000 4705 5000 4803 5000 4827 5000 5000 5000 5000 3865 4803 3865"/><rect class="b75d845e-713e-46b2-b5f8-7d9adeb7fffe" x="2098" y="2807" width="160.5" height="63.5"/><rect class="b75d845e-713e-46b2-b5f8-7d9adeb7fffe" x="959" y="3261.7" width="29.3" height="94"/><rect class="b75d845e-713e-46b2-b5f8-7d9adeb7fffe" x="1067" y="3303.7" width="29.3" height="52"/><rect class="b75d845e-713e-46b2-b5f8-7d9adeb7fffe" x="3293.7" y="3009.3" width="36.7" height="77.73"/><rect class="b75d845e-713e-46b2-b5f8-7d9adeb7fffe" x="3981" y="3221.2" width="22" height="77.73"/><rect class="b75d845e-713e-46b2-b5f8-7d9adeb7fffe" x="3335.7" y="3317.3" width="109.4" height="102.67"/></g><g id="ffeb6bb7-abd4-4c16-a8c4-f70936517fba" data-name="Layer 6"><rect class="b6eeb348-ef61-4323-a357-02fafb6c6cdd" x="4.7" y="4175.7" width="4995.3" height="755"/><rect class="a69acd6f-b68d-4b5b-a8e0-ebcd7462045a" x="33.5" y="3739.5" width="43" height="43"/><rect class="a69acd6f-b68d-4b5b-a8e0-ebcd7462045a" x="489.8" y="3709.5" width="18" height="18"/><rect class="a69acd6f-b68d-4b5b-a8e0-ebcd7462045a" x="546.8" y="3709.5" width="18" height="18"/><rect class="a69acd6f-b68d-4b5b-a8e0-ebcd7462045a" x="461.3" y="3737.2" width="18" height="18"/><rect class="a69acd6f-b68d-4b5b-a8e0-ebcd7462045a" x="518.3" y="3737.2" width="18" height="18"/><rect class="a69acd6f-b68d-4b5b-a8e0-ebcd7462045a" x="546.8" y="3737.2" width="18" height="18"/><rect class="a69acd6f-b68d-4b5b-a8e0-ebcd7462045a" x="461.3" y="3764.8" width="18" height="18"/><rect class="a69acd6f-b68d-4b5b-a8e0-ebcd7462045a" x="489.8" y="3764.8" width="18" height="18"/><rect class="a69acd6f-b68d-4b5b-a8e0-ebcd7462045a" x="461.3" y="3792.5" width="18" height="18"/><rect class="a69acd6f-b68d-4b5b-a8e0-ebcd7462045a" x="546.8" y="3792.5" width="18" height="18"/><rect class="a69acd6f-b68d-4b5b-a8e0-ebcd7462045a" x="518.3" y="3820.2" width="18" height="18"/><rect class="a69acd6f-b68d-4b5b-a8e0-ebcd7462045a" x="546.8" y="3820.2" width="18" height="18"/><rect class="a69acd6f-b68d-4b5b-a8e0-ebcd7462045a" x="461.3" y="3847.8" width="18" height="18"/><rect class="a69acd6f-b68d-4b5b-a8e0-ebcd7462045a" x="489.8" y="3847.8" width="18" height="18"/><rect class="a69acd6f-b68d-4b5b-a8e0-ebcd7462045a" x="518.3" y="3847.8" width="18" height="18"/><rect class="a69acd6f-b68d-4b5b-a8e0-ebcd7462045a" x="489.8" y="3875.5" width="18" height="18"/><rect class="a69acd6f-b68d-4b5b-a8e0-ebcd7462045a" x="546.8" y="3875.5" width="18" height="18"/><rect class="a69acd6f-b68d-4b5b-a8e0-ebcd7462045a" x="461.3" y="3903.2" width="18" height="18"/><rect class="a69acd6f-b68d-4b5b-a8e0-ebcd7462045a" x="489.8" y="3903.2" width="18" height="18"/><rect class="a69acd6f-b68d-4b5b-a8e0-ebcd7462045a" x="518.3" y="3903.2" width="18" height="18"/><rect class="a69acd6f-b68d-4b5b-a8e0-ebcd7462045a" x="461.3" y="3930.8" width="18" height="18"/><rect class="a69acd6f-b68d-4b5b-a8e0-ebcd7462045a" x="489.8" y="3958.5" width="18" height="18"/><rect class="a69acd6f-b68d-4b5b-a8e0-ebcd7462045a" x="518.3" y="3958.5" width="18" height="18"/><rect class="a69acd6f-b68d-4b5b-a8e0-ebcd7462045a" x="4552.5" y="3871.3" width="18" height="18"/><rect class="a69acd6f-b68d-4b5b-a8e0-ebcd7462045a" x="4609.5" y="3871.3" width="18" height="18"/><rect class="a69acd6f-b68d-4b5b-a8e0-ebcd7462045a" x="4524" y="3899" width="18" height="18"/><rect class="a69acd6f-b68d-4b5b-a8e0-ebcd7462045a" x="4581" y="3899" width="18" height="18"/><rect class="a69acd6f-b68d-4b5b-a8e0-ebcd7462045a" x="4609.5" y="3899" width="18" height="18"/><rect class="a69acd6f-b68d-4b5b-a8e0-ebcd7462045a" x="4524" y="3926.7" width="18" height="18"/><rect class="a69acd6f-b68d-4b5b-a8e0-ebcd7462045a" x="4552.5" y="3926.7" width="18" height="18"/><rect class="a69acd6f-b68d-4b5b-a8e0-ebcd7462045a" x="4524" y="3954.3" width="18" height="18"/><rect class="a69acd6f-b68d-4b5b-a8e0-ebcd7462045a" x="4609.5" y="3954.3" width="18" height="18"/><rect class="a69acd6f-b68d-4b5b-a8e0-ebcd7462045a" x="4581" y="3982" width="18" height="18"/><rect class="a69acd6f-b68d-4b5b-a8e0-ebcd7462045a" x="4609.5" y="3982" width="18" height="18"/><rect class="a69acd6f-b68d-4b5b-a8e0-ebcd7462045a" x="4524" y="4009.7" width="18" height="18"/><rect class="a69acd6f-b68d-4b5b-a8e0-ebcd7462045a" x="4552.5" y="4009.7" width="18" height="18"/><rect class="a69acd6f-b68d-4b5b-a8e0-ebcd7462045a" x="4581" y="4009.7" width="18" height="18"/><rect class="a69acd6f-b68d-4b5b-a8e0-ebcd7462045a" x="4552.5" y="4037.3" width="18" height="18"/><rect class="a69acd6f-b68d-4b5b-a8e0-ebcd7462045a" x="4609.5" y="4037.3" width="18" height="18"/><rect class="a69acd6f-b68d-4b5b-a8e0-ebcd7462045a" x="4524" y="4065" width="18" height="18"/><rect class="a69acd6f-b68d-4b5b-a8e0-ebcd7462045a" x="4552.5" y="4065" width="18" height="18"/><rect class="a69acd6f-b68d-4b5b-a8e0-ebcd7462045a" x="4581" y="4065" width="18" height="18"/><rect class="a69acd6f-b68d-4b5b-a8e0-ebcd7462045a" x="4518.5" y="3848.7" width="18" height="18"/><rect class="a69acd6f-b68d-4b5b-a8e0-ebcd7462045a" x="4552.5" y="3817.8" width="18" height="18"/><rect class="a69acd6f-b68d-4b5b-a8e0-ebcd7462045a" x="4581" y="3817.8" width="18" height="18"/><rect class="a69acd6f-b68d-4b5b-a8e0-ebcd7462045a" x="1867.9" y="3141.1" width="32.8" height="32.78" transform="translate(3768.5 6315) rotate(180)"/><rect class="a69acd6f-b68d-4b5b-a8e0-ebcd7462045a" x="1764.1" y="3141.1" width="32.8" height="32.78" transform="translate(3560.9 6315) rotate(180)"/><rect class="a69acd6f-b68d-4b5b-a8e0-ebcd7462045a" x="1919.8" y="3191.5" width="32.8" height="32.78" transform="translate(3872.3 6415.7) rotate(180)"/><rect class="a69acd6f-b68d-4b5b-a8e0-ebcd7462045a" x="1816" y="3191.5" width="32.8" height="32.78" transform="translate(3664.7 6415.7) rotate(180)"/><rect class="a69acd6f-b68d-4b5b-a8e0-ebcd7462045a" x="1764.1" y="3191.5" width="32.8" height="32.78" transform="translate(3560.9 6415.7) rotate(180)"/><rect class="a69acd6f-b68d-4b5b-a8e0-ebcd7462045a" x="1919.8" y="3241.9" width="32.8" height="32.78" transform="translate(3872.3 6516.5) rotate(180)"/><rect class="a69acd6f-b68d-4b5b-a8e0-ebcd7462045a" x="1867.9" y="3241.9" width="32.8" height="32.78" transform="translate(3768.5 6516.5) rotate(180)"/><rect class="a69acd6f-b68d-4b5b-a8e0-ebcd7462045a" x="1919.8" y="3292.3" width="32.8" height="32.78" transform="translate(3872.3 6617.3) rotate(180)"/><rect class="a69acd6f-b68d-4b5b-a8e0-ebcd7462045a" x="1764.1" y="3292.3" width="32.8" height="32.78" transform="translate(3560.9 6617.3) rotate(180)"/><rect class="a69acd6f-b68d-4b5b-a8e0-ebcd7462045a" x="1816" y="3342.6" width="32.8" height="32.78" transform="translate(3664.7 6718.1) rotate(180)"/><rect class="a69acd6f-b68d-4b5b-a8e0-ebcd7462045a" x="1764.1" y="3342.6" width="32.8" height="32.78" transform="translate(3560.9 6718.1) rotate(180)"/><rect class="a69acd6f-b68d-4b5b-a8e0-ebcd7462045a" x="1919.8" y="3393" width="32.8" height="32.78" transform="translate(3872.3 6818.8) rotate(180)"/><rect class="a69acd6f-b68d-4b5b-a8e0-ebcd7462045a" x="1867.9" y="3393" width="32.8" height="32.78" transform="translate(3768.5 6818.8) rotate(180)"/><rect class="a69acd6f-b68d-4b5b-a8e0-ebcd7462045a" x="1816" y="3393" width="32.8" height="32.78" transform="translate(3664.7 6818.8) rotate(180)"/><rect class="a69acd6f-b68d-4b5b-a8e0-ebcd7462045a" x="1867.9" y="3443.4" width="32.8" height="32.78" transform="translate(3768.5 6919.6) rotate(180)"/><rect class="a69acd6f-b68d-4b5b-a8e0-ebcd7462045a" x="1764.1" y="3443.4" width="32.8" height="32.78" transform="translate(3560.9 6919.6) rotate(180)"/><rect class="a69acd6f-b68d-4b5b-a8e0-ebcd7462045a" x="1919.8" y="3493.8" width="32.8" height="32.78" transform="translate(3872.3 7020.4) rotate(180)"/><rect class="a69acd6f-b68d-4b5b-a8e0-ebcd7462045a" x="1867.9" y="3493.8" width="32.8" height="32.78" transform="translate(3768.5 7020.4) rotate(180)"/><rect class="a69acd6f-b68d-4b5b-a8e0-ebcd7462045a" x="1816" y="3493.8" width="32.8" height="32.78" transform="translate(3664.7 7020.4) rotate(180)"/><rect class="a69acd6f-b68d-4b5b-a8e0-ebcd7462045a" x="1919.8" y="3544.2" width="32.8" height="32.78" transform="translate(3872.3 7121.2) rotate(180)"/><rect class="a69acd6f-b68d-4b5b-a8e0-ebcd7462045a" x="1867.9" y="3594.6" width="32.8" height="32.78" transform="translate(3768.5 7221.9) rotate(180)"/><rect class="a69acd6f-b68d-4b5b-a8e0-ebcd7462045a" x="1816" y="3594.6" width="32.8" height="32.78" transform="translate(3664.7 7221.9) rotate(180)"/><rect class="a69acd6f-b68d-4b5b-a8e0-ebcd7462045a" x="4358.6" y="3680.9" width="32.8" height="32.78" transform="translate(8750 7394.6) rotate(180)"/><rect class="a69acd6f-b68d-4b5b-a8e0-ebcd7462045a" x="4306.7" y="3680.9" width="32.8" height="32.78" transform="translate(8646.2 7394.6) rotate(180)"/><rect class="a69acd6f-b68d-4b5b-a8e0-ebcd7462045a" x="4254.8" y="3680.9" width="32.8" height="32.78" transform="translate(8542.4 7394.6) rotate(180)"/><rect class="a69acd6f-b68d-4b5b-a8e0-ebcd7462045a" x="4358.6" y="3731.3" width="32.8" height="32.78" transform="translate(8750 7495.4) rotate(180)"/><rect class="a69acd6f-b68d-4b5b-a8e0-ebcd7462045a" x="4888.2" y="3888.4" width="32.8" height="32.78"/><rect class="a69acd6f-b68d-4b5b-a8e0-ebcd7462045a" x="4940.1" y="3888.4" width="32.8" height="32.78"/><rect class="a69acd6f-b68d-4b5b-a8e0-ebcd7462045a" x="4836.3" y="3938.8" width="32.8" height="32.78"/><rect class="a69acd6f-b68d-4b5b-a8e0-ebcd7462045a" x="4306.7" y="3781.7" width="32.8" height="32.78" transform="translate(8646.2 7596.1) rotate(180)"/><rect class="a69acd6f-b68d-4b5b-a8e0-ebcd7462045a" x="4254.8" y="3781.7" width="32.8" height="32.78" transform="translate(8542.4 7596.1) rotate(180)"/><rect class="a69acd6f-b68d-4b5b-a8e0-ebcd7462045a" x="109" y="3739.5" width="43" height="43"/><rect class="a69acd6f-b68d-4b5b-a8e0-ebcd7462045a" x="184.5" y="3739.5" width="43" height="43"/><rect class="a69acd6f-b68d-4b5b-a8e0-ebcd7462045a" x="260" y="3739.5" width="43" height="43"/><rect class="a69acd6f-b68d-4b5b-a8e0-ebcd7462045a" x="927.8" y="3377.5" width="43" height="43"/><rect class="a69acd6f-b68d-4b5b-a8e0-ebcd7462045a" x="1003.3" y="3377.5" width="43" height="43"/><rect class="a69acd6f-b68d-4b5b-a8e0-ebcd7462045a" x="1078.8" y="3377.5" width="43" height="43"/><rect class="a69acd6f-b68d-4b5b-a8e0-ebcd7462045a" x="927.8" y="3492.2" width="43" height="43"/><rect class="a69acd6f-b68d-4b5b-a8e0-ebcd7462045a" x="1003.3" y="3492.2" width="43" height="43"/><rect class="a69acd6f-b68d-4b5b-a8e0-ebcd7462045a" x="1078.8" y="3492.2" width="43" height="43"/><rect class="a69acd6f-b68d-4b5b-a8e0-ebcd7462045a" x="927.8" y="3606.8" width="43" height="43"/><rect class="a69acd6f-b68d-4b5b-a8e0-ebcd7462045a" x="1003.3" y="3606.8" width="43" height="43"/><rect class="a69acd6f-b68d-4b5b-a8e0-ebcd7462045a" x="1078.8" y="3606.8" width="43" height="43"/><rect class="a69acd6f-b68d-4b5b-a8e0-ebcd7462045a" x="927.8" y="3721.5" width="43" height="43"/><rect class="a69acd6f-b68d-4b5b-a8e0-ebcd7462045a" x="1003.3" y="3721.5" width="43" height="43"/><rect class="a69acd6f-b68d-4b5b-a8e0-ebcd7462045a" x="1078.8" y="3721.5" width="43" height="43"/><rect class="a69acd6f-b68d-4b5b-a8e0-ebcd7462045a" x="927.8" y="3836.2" width="43" height="43"/><rect class="a69acd6f-b68d-4b5b-a8e0-ebcd7462045a" x="1003.3" y="3836.2" width="43" height="43"/><rect class="a69acd6f-b68d-4b5b-a8e0-ebcd7462045a" x="1078.8" y="3836.2" width="43" height="43"/><rect class="a69acd6f-b68d-4b5b-a8e0-ebcd7462045a" x="927.8" y="3950.8" width="43" height="43"/><rect class="a69acd6f-b68d-4b5b-a8e0-ebcd7462045a" x="1003.3" y="3950.8" width="43" height="43"/><rect class="a69acd6f-b68d-4b5b-a8e0-ebcd7462045a" x="1078.8" y="3950.8" width="43" height="43"/><rect class="a69acd6f-b68d-4b5b-a8e0-ebcd7462045a" x="3445.1" y="3009.3" width="43" height="43"/><rect class="a69acd6f-b68d-4b5b-a8e0-ebcd7462045a" x="3520.6" y="3009.3" width="43" height="43"/><rect class="a69acd6f-b68d-4b5b-a8e0-ebcd7462045a" x="3596.1" y="3009.3" width="43" height="43"/><rect class="a69acd6f-b68d-4b5b-a8e0-ebcd7462045a" x="3520.6" y="3123.9" width="43" height="43"/><rect class="a69acd6f-b68d-4b5b-a8e0-ebcd7462045a" x="3596.1" y="3123.9" width="43" height="43"/><rect class="a69acd6f-b68d-4b5b-a8e0-ebcd7462045a" x="3445.1" y="3238.6" width="43" height="43"/><rect class="a69acd6f-b68d-4b5b-a8e0-ebcd7462045a" x="3520.6" y="3238.6" width="43" height="43"/><rect class="a69acd6f-b68d-4b5b-a8e0-ebcd7462045a" x="3471.1" y="3353.3" width="43" height="43"/><rect class="a69acd6f-b68d-4b5b-a8e0-ebcd7462045a" x="3596.1" y="3353.3" width="43" height="43"/><rect class="a69acd6f-b68d-4b5b-a8e0-ebcd7462045a" x="3460.1" y="3467.9" width="43" height="43"/><rect class="a69acd6f-b68d-4b5b-a8e0-ebcd7462045a" x="3542.1" y="3467.9" width="43" height="43"/><rect class="a69acd6f-b68d-4b5b-a8e0-ebcd7462045a" x="3025.9" y="3284.9" width="43" height="43"/><rect class="a69acd6f-b68d-4b5b-a8e0-ebcd7462045a" x="3025.9" y="3419" width="43" height="43"/><rect class="a69acd6f-b68d-4b5b-a8e0-ebcd7462045a" x="3025.9" y="3553.1" width="43" height="43"/><rect class="a69acd6f-b68d-4b5b-a8e0-ebcd7462045a" x="3025.9" y="3687.2" width="43" height="43"/><rect class="a69acd6f-b68d-4b5b-a8e0-ebcd7462045a" x="3025.9" y="3821.4" width="43" height="43"/><rect class="a69acd6f-b68d-4b5b-a8e0-ebcd7462045a" x="3488.1" y="3582.6" width="43" height="43"/><rect class="a69acd6f-b68d-4b5b-a8e0-ebcd7462045a" x="3596.1" y="3582.6" width="43" height="43"/><rect class="a69acd6f-b68d-4b5b-a8e0-ebcd7462045a" x="2403.3" y="2697" width="43" height="43"/><rect class="a69acd6f-b68d-4b5b-a8e0-ebcd7462045a" x="2478.8" y="2697" width="43" height="43"/><rect class="a69acd6f-b68d-4b5b-a8e0-ebcd7462045a" x="2554.3" y="2697" width="43" height="43"/><rect class="a69acd6f-b68d-4b5b-a8e0-ebcd7462045a" x="2403.3" y="2811.7" width="43" height="43"/><rect class="a69acd6f-b68d-4b5b-a8e0-ebcd7462045a" x="2554.3" y="2811.7" width="43" height="43"/><rect class="a69acd6f-b68d-4b5b-a8e0-ebcd7462045a" x="2403.3" y="2926.4" width="43" height="43"/><rect class="a69acd6f-b68d-4b5b-a8e0-ebcd7462045a" x="2478.8" y="2926.4" width="43" height="43"/><rect class="a69acd6f-b68d-4b5b-a8e0-ebcd7462045a" x="2554.3" y="2926.4" width="43" height="43"/><rect class="a69acd6f-b68d-4b5b-a8e0-ebcd7462045a" x="2403.3" y="3041" width="43" height="43"/><rect class="a69acd6f-b68d-4b5b-a8e0-ebcd7462045a" x="2478.8" y="3041" width="43" height="43"/><rect class="a69acd6f-b68d-4b5b-a8e0-ebcd7462045a" x="2554.3" y="3041" width="43" height="43"/><rect class="a69acd6f-b68d-4b5b-a8e0-ebcd7462045a" x="2403.3" y="3155.7" width="43" height="43"/><rect class="a69acd6f-b68d-4b5b-a8e0-ebcd7462045a" x="2478.8" y="3155.7" width="43" height="43"/><rect class="a69acd6f-b68d-4b5b-a8e0-ebcd7462045a" x="2403.3" y="3270.4" width="43" height="43"/><rect class="a69acd6f-b68d-4b5b-a8e0-ebcd7462045a" x="2554.3" y="3270.4" width="43" height="43"/><rect class="a69acd6f-b68d-4b5b-a8e0-ebcd7462045a" x="2629.8" y="2811.7" width="43" height="43"/><rect class="a69acd6f-b68d-4b5b-a8e0-ebcd7462045a" x="2629.8" y="2926.4" width="43" height="43"/><rect class="a69acd6f-b68d-4b5b-a8e0-ebcd7462045a" x="2629.8" y="3041" width="43" height="43"/><rect class="a69acd6f-b68d-4b5b-a8e0-ebcd7462045a" x="2629.8" y="3155.7" width="43" height="43"/><rect class="a69acd6f-b68d-4b5b-a8e0-ebcd7462045a" x="2629.8" y="3270.4" width="43" height="43"/><rect class="a69acd6f-b68d-4b5b-a8e0-ebcd7462045a" x="1407.7" y="2848.2" width="69.3" height="69.33"/><rect class="a69acd6f-b68d-4b5b-a8e0-ebcd7462045a" x="1537.7" y="2967.5" width="69.3" height="69.33"/><rect class="a69acd6f-b68d-4b5b-a8e0-ebcd7462045a" x="2780.2" y="3050.4" width="33.7" height="33.67"/><rect class="a69acd6f-b68d-4b5b-a8e0-ebcd7462045a" x="2823.5" y="3050.4" width="33.7" height="33.67"/><rect class="a69acd6f-b68d-4b5b-a8e0-ebcd7462045a" x="2866.9" y="3050.4" width="33.7" height="33.67"/><rect class="a69acd6f-b68d-4b5b-a8e0-ebcd7462045a" x="2910.2" y="3050.4" width="33.7" height="33.67"/><rect class="a69acd6f-b68d-4b5b-a8e0-ebcd7462045a" x="2780.2" y="3093" width="33.7" height="33.67"/><rect class="a69acd6f-b68d-4b5b-a8e0-ebcd7462045a" x="2823.5" y="3093" width="33.7" height="33.67"/><rect class="a69acd6f-b68d-4b5b-a8e0-ebcd7462045a" x="2866.9" y="3093" width="33.7" height="33.67"/><rect class="a69acd6f-b68d-4b5b-a8e0-ebcd7462045a" x="2910.2" y="3093" width="33.7" height="33.67"/><rect class="a69acd6f-b68d-4b5b-a8e0-ebcd7462045a" x="2780.2" y="3135.7" width="33.7" height="33.67"/><rect class="a69acd6f-b68d-4b5b-a8e0-ebcd7462045a" x="2823.5" y="3135.7" width="33.7" height="33.67"/><rect class="a69acd6f-b68d-4b5b-a8e0-ebcd7462045a" x="2866.9" y="3135.7" width="33.7" height="33.67"/><rect class="a69acd6f-b68d-4b5b-a8e0-ebcd7462045a" x="2910.2" y="3135.7" width="33.7" height="33.67"/><rect class="a69acd6f-b68d-4b5b-a8e0-ebcd7462045a" x="2780.2" y="3178.4" width="33.7" height="33.67"/><rect class="a69acd6f-b68d-4b5b-a8e0-ebcd7462045a" x="2823.5" y="3178.4" width="33.7" height="33.67"/><rect class="a69acd6f-b68d-4b5b-a8e0-ebcd7462045a" x="2866.9" y="3178.4" width="33.7" height="33.67"/><rect class="a69acd6f-b68d-4b5b-a8e0-ebcd7462045a" x="2910.2" y="3178.4" width="33.7" height="33.67"/><rect class="a69acd6f-b68d-4b5b-a8e0-ebcd7462045a" x="2780.2" y="3221" width="33.7" height="33.67"/><rect class="a69acd6f-b68d-4b5b-a8e0-ebcd7462045a" x="2823.5" y="3221" width="33.7" height="33.67"/><rect class="a69acd6f-b68d-4b5b-a8e0-ebcd7462045a" x="2866.9" y="3221" width="33.7" height="33.67"/><rect class="a69acd6f-b68d-4b5b-a8e0-ebcd7462045a" x="2910.2" y="3221" width="33.7" height="33.67"/><rect class="a69acd6f-b68d-4b5b-a8e0-ebcd7462045a" x="2780.2" y="3263.7" width="33.7" height="33.67"/><rect class="a69acd6f-b68d-4b5b-a8e0-ebcd7462045a" x="2823.5" y="3263.7" width="33.7" height="33.67"/><rect class="a69acd6f-b68d-4b5b-a8e0-ebcd7462045a" x="2866.9" y="3263.7" width="33.7" height="33.67"/><rect class="a69acd6f-b68d-4b5b-a8e0-ebcd7462045a" x="2910.2" y="3263.7" width="33.7" height="33.67"/><rect class="a69acd6f-b68d-4b5b-a8e0-ebcd7462045a" x="2780.2" y="3306.4" width="33.7" height="33.67"/><rect class="a69acd6f-b68d-4b5b-a8e0-ebcd7462045a" x="2823.5" y="3306.4" width="33.7" height="33.67"/><rect class="a69acd6f-b68d-4b5b-a8e0-ebcd7462045a" x="2866.9" y="3306.4" width="33.7" height="33.67"/><rect class="a69acd6f-b68d-4b5b-a8e0-ebcd7462045a" x="2910.2" y="3306.4" width="33.7" height="33.67"/><rect class="a69acd6f-b68d-4b5b-a8e0-ebcd7462045a" x="2780.2" y="3349" width="33.7" height="33.67"/><rect class="a69acd6f-b68d-4b5b-a8e0-ebcd7462045a" x="2823.5" y="3349" width="33.7" height="33.67"/><rect class="a69acd6f-b68d-4b5b-a8e0-ebcd7462045a" x="2866.9" y="3349" width="33.7" height="33.67"/><rect class="a69acd6f-b68d-4b5b-a8e0-ebcd7462045a" x="2910.2" y="3349" width="33.7" height="33.67"/><rect class="a69acd6f-b68d-4b5b-a8e0-ebcd7462045a" x="2780.2" y="3391.7" width="33.7" height="33.67"/><rect class="a69acd6f-b68d-4b5b-a8e0-ebcd7462045a" x="2823.5" y="3391.7" width="33.7" height="33.67"/><rect class="a69acd6f-b68d-4b5b-a8e0-ebcd7462045a" x="2866.9" y="3391.7" width="33.7" height="33.67"/><rect class="a69acd6f-b68d-4b5b-a8e0-ebcd7462045a" x="2910.2" y="3391.7" width="33.7" height="33.67"/><rect class="a69acd6f-b68d-4b5b-a8e0-ebcd7462045a" x="2780.2" y="3434.4" width="33.7" height="33.67"/><rect class="a69acd6f-b68d-4b5b-a8e0-ebcd7462045a" x="2823.5" y="3434.4" width="33.7" height="33.67"/><rect class="a69acd6f-b68d-4b5b-a8e0-ebcd7462045a" x="2866.9" y="3434.4" width="33.7" height="33.67"/><rect class="a69acd6f-b68d-4b5b-a8e0-ebcd7462045a" x="2910.2" y="3434.4" width="33.7" height="33.67"/><rect class="a69acd6f-b68d-4b5b-a8e0-ebcd7462045a" x="2083.6" y="2890" width="201.7" height="19.55"/><rect class="a69acd6f-b68d-4b5b-a8e0-ebcd7462045a" x="2083.6" y="3033" width="201.7" height="19.55"/><rect class="a69acd6f-b68d-4b5b-a8e0-ebcd7462045a" x="2083.6" y="3176" width="201.7" height="19.55"/><rect class="a69acd6f-b68d-4b5b-a8e0-ebcd7462045a" x="2083.6" y="3319" width="201.7" height="19.55"/><rect class="a69acd6f-b68d-4b5b-a8e0-ebcd7462045a" x="2083.6" y="3462" width="201.7" height="19.55"/><rect class="a69acd6f-b68d-4b5b-a8e0-ebcd7462045a" x="2083.6" y="2938.3" width="88" height="19.55"/><rect class="a69acd6f-b68d-4b5b-a8e0-ebcd7462045a" x="2083.6" y="2985.7" width="88" height="19.55"/><rect class="a69acd6f-b68d-4b5b-a8e0-ebcd7462045a" x="3896.8" y="3396.3" width="54.9" height="16.12"/><rect class="a69acd6f-b68d-4b5b-a8e0-ebcd7462045a" x="3897.5" y="3514.2" width="199.2" height="16.12"/><rect class="a69acd6f-b68d-4b5b-a8e0-ebcd7462045a" x="3826.3" y="3556.7" width="270.4" height="16.12"/><rect class="a69acd6f-b68d-4b5b-a8e0-ebcd7462045a" x="3826.3" y="3599.2" width="270.4" height="16.12"/><rect class="a69acd6f-b68d-4b5b-a8e0-ebcd7462045a" x="3826.3" y="3641.8" width="270.4" height="16.12"/><rect class="a69acd6f-b68d-4b5b-a8e0-ebcd7462045a" x="3826.3" y="3684.3" width="88.6" height="16.12"/><rect class="a69acd6f-b68d-4b5b-a8e0-ebcd7462045a" x="3896.8" y="3436.1" width="120.2" height="16.12"/><rect class="a69acd6f-b68d-4b5b-a8e0-ebcd7462045a" x="3896.8" y="3475.1" width="36.3" height="16.12"/><rect class="a69acd6f-b68d-4b5b-a8e0-ebcd7462045a" x="1537.7" y="3100.9" width="69.3" height="69.33"/><rect class="a69acd6f-b68d-4b5b-a8e0-ebcd7462045a" x="1407.7" y="3277.9" width="69.3" height="69.33"/><rect class="a69acd6f-b68d-4b5b-a8e0-ebcd7462045a" x="1407.7" y="3483.9" width="69.3" height="69.33"/><rect class="a69acd6f-b68d-4b5b-a8e0-ebcd7462045a" x="3269.5" y="3135.7" width="63.3" height="63.3" transform="translate(6602.4 6334.7) rotate(180)"/><rect class="a69acd6f-b68d-4b5b-a8e0-ebcd7462045a" x="3150.8" y="3244.7" width="63.3" height="63.3" transform="translate(6365 6552.7) rotate(180)"/><rect class="a69acd6f-b68d-4b5b-a8e0-ebcd7462045a" x="3150.8" y="3366.4" width="63.3" height="63.3" transform="translate(6365 6796.1) rotate(180)"/><rect class="a69acd6f-b68d-4b5b-a8e0-ebcd7462045a" x="3269.5" y="3528" width="63.3" height="63.3" transform="translate(6602.4 7119.3) rotate(180)"/><rect class="a69acd6f-b68d-4b5b-a8e0-ebcd7462045a" x="2403.3" y="3362.8" width="37.4" height="37.43" transform="translate(4843.9 6762.9) rotate(180)"/><rect class="a69acd6f-b68d-4b5b-a8e0-ebcd7462045a" x="2629.8" y="3449.5" width="43" height="43" transform="translate(5302.5 6942.1) rotate(180)"/><rect class="a69acd6f-b68d-4b5b-a8e0-ebcd7462045a" x="2554.3" y="3449.5" width="43" height="43" transform="translate(5151.5 6942.1) rotate(180)"/><rect class="a69acd6f-b68d-4b5b-a8e0-ebcd7462045a" x="2478.8" y="3449.5" width="43" height="43" transform="translate(5000.5 6942.1) rotate(180)"/><rect class="a69acd6f-b68d-4b5b-a8e0-ebcd7462045a" x="2629.8" y="3564.2" width="43" height="43" transform="translate(5302.5 7171.4) rotate(180)"/><rect class="a69acd6f-b68d-4b5b-a8e0-ebcd7462045a" x="2478.8" y="3564.2" width="43" height="43" transform="translate(5000.5 7171.4) rotate(180)"/><rect class="a69acd6f-b68d-4b5b-a8e0-ebcd7462045a" x="2629.8" y="3678.9" width="43" height="43" transform="translate(5302.5 7400.8) rotate(180)"/><rect class="a69acd6f-b68d-4b5b-a8e0-ebcd7462045a" x="2554.3" y="3678.9" width="43" height="43" transform="translate(5151.5 7400.8) rotate(180)"/><rect class="a69acd6f-b68d-4b5b-a8e0-ebcd7462045a" x="2629.8" y="3793.5" width="43" height="43" transform="translate(5302.5 7630.1) rotate(180)"/><rect class="a69acd6f-b68d-4b5b-a8e0-ebcd7462045a" x="2478.8" y="3793.5" width="43" height="43" transform="translate(5000.5 7630.1) rotate(180)"/><rect class="a69acd6f-b68d-4b5b-a8e0-ebcd7462045a" x="2403.3" y="3564.2" width="43" height="43" transform="translate(4849.5 7171.4) rotate(180)"/><rect class="a69acd6f-b68d-4b5b-a8e0-ebcd7462045a" x="2403.3" y="3678.9" width="43" height="43" transform="translate(4849.5 7400.8) rotate(180)"/><rect class="a69acd6f-b68d-4b5b-a8e0-ebcd7462045a" x="109" y="3838.5" width="43" height="43"/><rect class="a69acd6f-b68d-4b5b-a8e0-ebcd7462045a" x="184.5" y="3838.5" width="43" height="43"/><rect class="a69acd6f-b68d-4b5b-a8e0-ebcd7462045a" x="260" y="3838.5" width="43" height="43"/><rect class="a69acd6f-b68d-4b5b-a8e0-ebcd7462045a" x="33.5" y="3937.5" width="43" height="43"/><rect class="a69acd6f-b68d-4b5b-a8e0-ebcd7462045a" x="109" y="3937.5" width="43" height="43"/><rect class="a69acd6f-b68d-4b5b-a8e0-ebcd7462045a" x="260" y="3937.5" width="43" height="43"/><rect class="a69acd6f-b68d-4b5b-a8e0-ebcd7462045a" x="33.5" y="4036.5" width="43" height="43"/><rect class="a69acd6f-b68d-4b5b-a8e0-ebcd7462045a" x="184.5" y="4036.5" width="43" height="43"/><rect class="a69acd6f-b68d-4b5b-a8e0-ebcd7462045a" x="260" y="4036.5" width="43" height="43"/><rect class="a91f33ed-f679-40cf-a784-fa8ff8433601" y="4245" width="5000" height="755"/></g></svg>