<svg xmlns="http://www.w3.org/2000/svg" viewBox="0 0 309.8 243.3"><defs><style>.a{fill:#455a64;}.b{fill:#37474f;}.c{fill:#263238;}.d{fill:#ffc727;}.e,.f{opacity:0.3;}.e,.g{isolation:isolate;}.g,.h{opacity:0.2;}</style></defs><title>Logo</title><rect class="a" x="221.8" y="63.7" width="58.5" height="179.57"/><rect class="b" x="236.3" y="45.7" width="43.8" height="18.06"/><rect class="a" x="239.9" y="48.5" width="3.7" height="12.49"/><rect class="a" x="246.5" y="48.5" width="3.7" height="12.49"/><rect class="a" x="253" y="48.5" width="3.7" height="12.49"/><rect class="a" x="259.6" y="48.5" width="3.7" height="12.49"/><rect class="a" x="266.1" y="48.5" width="3.7" height="12.49"/><rect class="a" x="272.7" y="48.5" width="3.7" height="12.49"/><rect class="a" x="280" y="45.7" width="19.9" height="18.06"/><rect class="b" x="282.8" y="48.5" width="3.2" height="12.49"/><rect class="b" x="288.4" y="48.5" width="3.2" height="12.49"/><rect class="b" x="294" y="48.5" width="3.2" height="12.49"/><rect class="b" x="280" y="63.7" width="29.8" height="179.57"/><rect class="c" x="233.8" y="76.1" width="10.8" height="16.53"/><rect class="c" x="255.7" y="76.1" width="10.8" height="16.53"/><rect class="c" x="233.8" y="102.2" width="10.8" height="16.53"/><rect class="c" x="255.7" y="102.2" width="10.8" height="16.53"/><rect class="c" x="233.8" y="128.2" width="10.8" height="16.53"/><rect class="c" x="255.7" y="128.2" width="10.8" height="16.53"/><rect class="c" x="248.8" y="154.2" width="10.8" height="16.53"/><rect class="c" x="270.8" y="154.2" width="10.8" height="16.53"/><rect class="c" x="248.8" y="180.3" width="10.8" height="16.53"/><rect class="c" x="270.8" y="180.3" width="10.8" height="16.53"/><rect class="c" x="248.8" y="206.3" width="10.8" height="16.53"/><rect class="c" x="270.8" y="206.3" width="10.8" height="16.53"/><rect class="c" x="285.5" y="76.1" width="6.2" height="16.53"/><rect class="c" x="298.1" y="76.1" width="6.2" height="16.53"/><rect class="c" x="285.5" y="102.2" width="6.2" height="16.53"/><rect class="c" x="298.1" y="102.2" width="6.2" height="16.53"/><rect class="c" x="285.5" y="128.2" width="6.2" height="16.53"/><rect class="c" x="298.1" y="128.2" width="6.2" height="16.53"/><rect class="c" x="285.5" y="154.2" width="6.2" height="16.53"/><rect class="c" x="298.1" y="154.2" width="6.2" height="16.53"/><rect class="c" x="285.5" y="180.3" width="6.2" height="16.53"/><rect class="c" x="298.1" y="180.3" width="6.2" height="16.53"/><rect class="c" x="285.5" y="206.3" width="6.2" height="16.53"/><rect class="c" x="298.1" y="206.3" width="6.2" height="16.53"/><rect class="b" x="109.1" y="12.9" width="31.3" height="230.36"/><rect class="a" x="109.1" y="25.8" width="31.3" height="2.42"/><rect class="c" x="112.3" y="35.4" width="5.8" height="13.47"/><rect class="c" x="112.3" y="52.4" width="5.8" height="13.47"/><rect class="c" x="112.3" y="69.4" width="5.8" height="13.47"/><rect class="c" x="112.3" y="86.4" width="5.8" height="13.47"/><rect class="c" x="112.3" y="103.3" width="5.8" height="13.47"/><rect class="c" x="112.3" y="120.3" width="5.8" height="13.47"/><rect class="c" x="112.3" y="137.3" width="5.8" height="13.47"/><rect class="c" x="112.3" y="154.3" width="5.8" height="13.47"/><rect class="c" x="112.3" y="171.3" width="5.8" height="13.47"/><rect class="c" x="112.3" y="188.3" width="5.8" height="13.47"/><rect class="c" x="112.3" y="205.3" width="5.8" height="13.47"/><rect class="c" x="112.3" y="222.3" width="5.8" height="13.47"/><rect class="c" x="112.3" y="35.4" width="5.8" height="13.47"/><rect class="c" x="112.3" y="52.4" width="5.8" height="13.47"/><rect class="c" x="112.3" y="69.4" width="5.8" height="13.47"/><rect class="c" x="112.3" y="86.4" width="5.8" height="13.47"/><rect class="c" x="112.3" y="103.3" width="5.8" height="13.47"/><rect class="c" x="112.3" y="120.3" width="5.8" height="13.47"/><rect class="c" x="112.3" y="137.3" width="5.8" height="13.47"/><rect class="c" x="112.3" y="154.3" width="5.8" height="13.47"/><rect class="c" x="112.3" y="171.3" width="5.8" height="13.47"/><rect class="c" x="112.3" y="188.3" width="5.8" height="13.47"/><rect class="c" x="112.3" y="205.3" width="5.8" height="13.47"/><rect class="c" x="112.3" y="222.3" width="5.8" height="13.47"/><rect class="c" x="121.8" y="35.4" width="5.8" height="13.47"/><rect class="c" x="121.8" y="52.4" width="5.8" height="13.47"/><rect class="c" x="121.8" y="69.4" width="5.8" height="13.47"/><rect class="c" x="121.8" y="86.4" width="5.8" height="13.47"/><rect class="c" x="121.8" y="103.3" width="5.8" height="13.47"/><rect class="c" x="121.8" y="120.3" width="5.8" height="13.47"/><rect class="c" x="121.8" y="137.3" width="5.8" height="13.47"/><rect class="c" x="121.8" y="154.3" width="5.8" height="13.47"/><rect class="c" x="121.8" y="171.3" width="5.8" height="13.47"/><rect class="c" x="121.8" y="188.3" width="5.8" height="13.47"/><rect class="c" x="121.8" y="205.3" width="5.8" height="13.47"/><rect class="c" x="121.8" y="222.3" width="5.8" height="13.47"/><rect class="c" x="121.8" y="35.4" width="5.8" height="13.47"/><rect class="c" x="121.8" y="52.4" width="5.8" height="13.47"/><rect class="c" x="121.8" y="69.4" width="5.8" height="13.47"/><rect class="c" x="121.8" y="86.4" width="5.8" height="13.47"/><rect class="c" x="121.8" y="103.3" width="5.8" height="13.47"/><rect class="c" x="121.8" y="120.3" width="5.8" height="13.47"/><rect class="c" x="121.8" y="137.3" width="5.8" height="13.47"/><rect class="c" x="121.8" y="154.3" width="5.8" height="13.47"/><rect class="c" x="121.8" y="171.3" width="5.8" height="13.47"/><rect class="c" x="121.8" y="188.3" width="5.8" height="13.47"/><rect class="c" x="121.8" y="205.3" width="5.8" height="13.47"/><rect class="c" x="121.8" y="222.3" width="5.8" height="13.47"/><rect class="c" x="131.4" y="35.4" width="5.8" height="13.47"/><rect class="c" x="131.4" y="52.4" width="5.8" height="13.47"/><rect class="c" x="131.4" y="69.4" width="5.8" height="13.47"/><rect class="c" x="131.4" y="86.4" width="5.8" height="13.47"/><rect class="c" x="131.4" y="103.3" width="5.8" height="13.47"/><rect class="c" x="131.4" y="120.3" width="5.8" height="13.47"/><rect class="c" x="131.4" y="137.3" width="5.8" height="13.47"/><rect class="c" x="131.4" y="154.3" width="5.8" height="13.47"/><rect class="c" x="131.4" y="171.3" width="5.8" height="13.47"/><rect class="c" x="131.4" y="188.3" width="5.8" height="13.47"/><rect class="c" x="131.4" y="205.3" width="5.8" height="13.47"/><rect class="c" x="131.4" y="222.3" width="5.8" height="13.47"/><rect class="c" x="131.4" y="35.4" width="5.8" height="13.47"/><rect class="c" x="131.4" y="52.4" width="5.8" height="13.47"/><rect class="c" x="131.4" y="69.4" width="5.8" height="13.47"/><rect class="c" x="131.4" y="86.4" width="5.8" height="13.47"/><rect class="c" x="131.4" y="103.3" width="5.8" height="13.47"/><rect class="c" x="131.4" y="120.3" width="5.8" height="13.47"/><rect class="c" x="131.4" y="137.3" width="5.8" height="13.47"/><rect class="c" x="131.4" y="154.3" width="5.8" height="13.47"/><rect class="c" x="131.4" y="171.3" width="5.8" height="13.47"/><rect class="c" x="131.4" y="188.3" width="5.8" height="13.47"/><rect class="c" x="131.4" y="205.3" width="5.8" height="13.47"/><rect class="c" x="131.4" y="222.3" width="5.8" height="13.47"/><rect class="a" x="55.6" y="12.9" width="53.5" height="230.36"/><rect class="b" x="55.6" y="25.8" width="53.5" height="2.42"/><rect class="b" x="74.7" width="34.4" height="12.94"/><rect class="c" x="109.1" width="16.2" height="12.94"/><rect class="c" x="61.3" y="35.4" width="9.3" height="13.47"/><rect class="c" x="61.3" y="52.4" width="9.3" height="13.47"/><rect class="c" x="61.3" y="69.4" width="9.3" height="13.47"/><rect class="c" x="61.3" y="86.4" width="9.3" height="13.47"/><rect class="c" x="61.3" y="103.3" width="9.3" height="13.47"/><rect class="c" x="61.3" y="120.3" width="9.3" height="13.47"/><rect class="c" x="61.3" y="137.3" width="9.3" height="13.47"/><rect class="c" x="61.3" y="154.3" width="9.3" height="13.47"/><rect class="c" x="61.3" y="171.3" width="9.3" height="13.47"/><rect class="c" x="61.3" y="188.3" width="9.3" height="13.47"/><rect class="c" x="61.3" y="205.3" width="9.3" height="13.47"/><rect class="c" x="61.3" y="222.3" width="9.3" height="13.47"/><rect class="c" x="61.3" y="35.4" width="9.3" height="13.47"/><rect class="c" x="61.3" y="52.4" width="9.3" height="13.47"/><rect class="c" x="61.3" y="69.4" width="9.3" height="13.47"/><rect class="c" x="61.3" y="86.4" width="9.3" height="13.47"/><rect class="c" x="61.3" y="103.3" width="9.3" height="13.47"/><rect class="c" x="61.3" y="120.3" width="9.3" height="13.47"/><rect class="c" x="61.3" y="137.3" width="9.3" height="13.47"/><rect class="c" x="61.3" y="154.3" width="9.3" height="13.47"/><rect class="c" x="61.3" y="171.3" width="9.3" height="13.47"/><rect class="c" x="61.3" y="188.3" width="9.3" height="13.47"/><rect class="c" x="61.3" y="205.3" width="9.3" height="13.47"/><rect class="c" x="61.3" y="222.3" width="9.3" height="13.47"/><rect class="c" x="76.8" y="35.4" width="9.3" height="13.47"/><rect class="c" x="76.8" y="52.4" width="9.3" height="13.47"/><rect class="c" x="76.8" y="69.4" width="9.3" height="13.47"/><rect class="c" x="76.8" y="86.4" width="9.3" height="13.47"/><rect class="c" x="76.8" y="103.3" width="9.3" height="13.47"/><rect class="c" x="76.8" y="120.3" width="9.3" height="13.47"/><rect class="c" x="76.8" y="137.3" width="9.3" height="13.47"/><rect class="c" x="76.8" y="154.3" width="9.3" height="13.47"/><rect class="c" x="76.8" y="171.3" width="9.3" height="13.47"/><rect class="c" x="76.8" y="188.3" width="9.3" height="13.47"/><rect class="c" x="76.8" y="205.3" width="9.3" height="13.47"/><rect class="c" x="76.8" y="222.3" width="9.3" height="13.47"/><rect class="c" x="76.8" y="35.4" width="9.3" height="13.47"/><rect class="c" x="76.8" y="52.4" width="9.3" height="13.47"/><rect class="c" x="76.8" y="69.4" width="9.3" height="13.47"/><rect class="c" x="76.8" y="86.4" width="9.3" height="13.47"/><rect class="c" x="76.8" y="103.3" width="9.3" height="13.47"/><rect class="c" x="76.8" y="120.3" width="9.3" height="13.47"/><rect class="c" x="76.8" y="137.3" width="9.3" height="13.47"/><rect class="c" x="76.8" y="154.3" width="9.3" height="13.47"/><rect class="c" x="76.8" y="171.3" width="9.3" height="13.47"/><rect class="c" x="76.8" y="188.3" width="9.3" height="13.47"/><rect class="c" x="76.8" y="205.3" width="9.3" height="13.47"/><rect class="c" x="76.8" y="222.3" width="9.3" height="13.47"/><rect class="c" x="92.3" y="35.4" width="9.3" height="13.47"/><rect class="c" x="92.3" y="52.4" width="9.3" height="13.47"/><rect class="c" x="92.3" y="69.4" width="9.3" height="13.47"/><rect class="c" x="92.3" y="86.4" width="9.3" height="13.47"/><rect class="c" x="92.3" y="103.3" width="9.3" height="13.47"/><rect class="c" x="92.3" y="120.3" width="9.3" height="13.47"/><rect class="c" x="92.3" y="137.3" width="9.3" height="13.47"/><rect class="c" x="92.3" y="154.3" width="9.3" height="13.47"/><rect class="c" x="92.3" y="171.3" width="9.3" height="13.47"/><rect class="c" x="92.3" y="188.3" width="9.3" height="13.47"/><rect class="c" x="92.3" y="205.3" width="9.3" height="13.47"/><rect class="c" x="92.3" y="222.3" width="9.3" height="13.47"/><rect class="c" x="92.3" y="35.4" width="9.3" height="13.47"/><rect class="c" x="92.3" y="52.4" width="9.3" height="13.47"/><rect class="c" x="92.3" y="69.4" width="9.3" height="13.47"/><rect class="c" x="92.3" y="86.4" width="9.3" height="13.47"/><rect class="c" x="92.3" y="103.3" width="9.3" height="13.47"/><rect class="c" x="92.3" y="120.3" width="9.3" height="13.47"/><rect class="c" x="92.3" y="137.3" width="9.3" height="13.47"/><rect class="c" x="92.3" y="154.3" width="9.3" height="13.47"/><rect class="c" x="92.3" y="171.3" width="9.3" height="13.47"/><rect class="c" x="92.3" y="188.3" width="9.3" height="13.47"/><rect class="c" x="92.3" y="205.3" width="9.3" height="13.47"/><rect class="c" x="92.3" y="222.3" width="9.3" height="13.47"/><polygon class="d" points="42.4 243.3 0 243.3 0 110.3 42.4 82.8 42.4 243.3"/><polygon class="d" points="36.9 243.3 4.8 243.3 4.8 114 36.9 93.2 36.9 243.3"/><polygon class="e" points="36.9 243.3 4.8 243.3 4.8 114 36.9 93.2 36.9 243.3"/><g class="f"><rect x="8.5" y="116.3" width="28.5" height="1.03"/><rect x="8.5" y="124.7" width="28.5" height="1.03"/><rect x="8.5" y="133.1" width="28.5" height="1.03"/><rect x="8.5" y="141.5" width="28.5" height="1.03"/><rect x="8.5" y="149.9" width="28.5" height="1.03"/><rect x="8.5" y="158.3" width="28.5" height="1.03"/><rect x="8.5" y="166.7" width="28.5" height="1.03"/><rect x="8.5" y="175.1" width="28.5" height="1.03"/><rect x="8.5" y="183.5" width="28.5" height="1.03"/><rect x="8.5" y="191.9" width="28.5" height="1.03"/><rect x="8.5" y="200.3" width="28.5" height="1.03"/><rect x="8.5" y="208.7" width="28.5" height="1.03"/><rect x="8.5" y="217.1" width="28.5" height="1.03"/><rect x="8.5" y="225.5" width="28.5" height="1.03"/><rect x="8.5" y="233.9" width="28.5" height="1.03"/><rect x="8.5" y="242.3" width="28.5" height="1.03"/><rect x="22.2" y="106.5" width="1" height="136.79"/></g><polygon class="d" points="36.9 93.2 36.9 97.8 8.5 116.3 8.5 243.3 4.8 243.3 4.8 114 36.9 93.2"/><polygon class="g" points="36.9 93.2 36.9 97.8 8.5 116.3 8.5 243.3 4.8 243.3 4.8 114 36.9 93.2"/><rect class="d" x="42.4" y="82.8" width="37.4" height="160.46"/><rect class="g" x="42.4" y="82.8" width="37.4" height="160.46"/><g class="h"><rect x="46" y="93.2" width="30.1" height="3.63"/><rect x="46" y="101.4" width="30.1" height="3.63"/><rect x="46" y="109.6" width="30.1" height="3.63"/><rect x="46" y="117.9" width="30.1" height="3.63"/><rect x="46" y="126.1" width="30.1" height="3.63"/><rect x="46" y="134.3" width="30.1" height="3.63"/><rect x="46" y="142.6" width="30.1" height="3.63"/><rect x="46" y="150.8" width="30.1" height="3.63"/><rect x="46" y="159" width="30.1" height="3.63"/><rect x="46" y="167.2" width="30.1" height="3.63"/><rect x="46" y="175.5" width="30.1" height="3.63"/><rect x="46" y="183.7" width="30.1" height="3.63"/><rect x="46" y="191.9" width="30.1" height="3.63"/><rect x="46" y="200.2" width="30.1" height="3.63"/><rect x="46" y="208.4" width="30.1" height="3.63"/><rect x="46" y="216.6" width="30.1" height="3.63"/><rect x="46" y="224.8" width="30.1" height="3.63"/><rect x="46" y="233.1" width="30.1" height="3.63"/></g><rect class="d" x="193.5" y="73.4" width="33.6" height="169.9"/><rect class="g" x="193.5" y="73.4" width="33.6" height="169.9"/><rect class="d" x="193.5" y="67.8" width="35.6" height="5.56"/><rect class="d" x="193.5" y="59.1" width="30.2" height="8.69"/><rect class="g" x="193.5" y="59.1" width="30.2" height="8.69"/><rect class="d" x="193.5" y="40" width="23.1" height="19.18"/><rect class="e" x="193.5" y="40" width="23.1" height="19.18"/><g class="f"><rect x="196.7" y="79.8" width="4.6" height="17.87"/></g><g class="f"><rect x="196.7" y="104.2" width="4.6" height="17.87"/></g><g class="f"><rect x="196.7" y="128.5" width="4.6" height="17.87"/></g><g class="f"><rect x="196.7" y="152.9" width="4.6" height="17.87"/></g><g class="f"><rect x="196.7" y="177.2" width="4.6" height="17.87"/></g><g class="f"><rect x="196.7" y="201.6" width="4.6" height="17.87"/></g><g class="f"><rect x="204.2" y="79.8" width="4.6" height="17.87"/></g><g class="f"><rect x="204.2" y="104.2" width="4.6" height="17.87"/></g><g class="f"><rect x="204.2" y="128.5" width="4.6" height="17.87"/></g><g class="f"><rect x="204.2" y="152.9" width="4.6" height="17.87"/></g><g class="f"><rect x="204.2" y="177.2" width="4.6" height="17.87"/></g><g class="f"><rect x="204.2" y="201.6" width="4.6" height="17.87"/></g><g class="f"><rect x="211.8" y="79.8" width="4.6" height="17.87"/></g><g class="f"><rect x="211.8" y="104.2" width="4.6" height="17.87"/></g><g class="f"><rect x="211.8" y="128.5" width="4.6" height="17.87"/></g><g class="f"><rect x="211.8" y="152.9" width="4.6" height="17.87"/></g><g class="f"><rect x="211.8" y="177.2" width="4.6" height="17.87"/></g><g class="f"><rect x="211.8" y="201.6" width="4.6" height="17.87"/></g><g class="f"><rect x="219.3" y="79.8" width="4.6" height="17.87"/></g><g class="f"><rect x="219.3" y="104.2" width="4.6" height="17.87"/></g><g class="f"><rect x="219.3" y="128.5" width="4.6" height="17.87"/></g><g class="f"><rect x="219.3" y="152.9" width="4.6" height="17.87"/></g><g class="f"><rect x="219.3" y="177.2" width="4.6" height="17.87"/></g><g class="f"><rect x="219.3" y="201.6" width="4.6" height="17.87"/></g><rect class="d" x="124.6" y="73.4" width="68.9" height="169.9"/><rect class="d" x="127.9" y="59.1" width="65.6" height="8.69"/><rect class="d" x="144.1" y="40" width="49.3" height="19.18"/><rect class="g" x="144.1" y="40" width="49.3" height="19.18"/><rect class="d" x="122.5" y="67.8" width="70.9" height="5.56"/><rect class="g" x="122.5" y="67.8" width="70.9" height="5.56"/><g class="f"><rect x="131.2" y="79.8" width="9.3" height="17.87"/></g><g class="f"><rect x="131.2" y="104.2" width="9.3" height="17.87"/></g><g class="f"><rect x="131.2" y="128.5" width="9.3" height="17.87"/></g><g class="f"><rect x="131.2" y="152.9" width="9.3" height="17.87"/></g><g class="f"><rect x="131.2" y="177.2" width="9.3" height="17.87"/></g><g class="f"><rect x="131.2" y="201.6" width="9.3" height="17.87"/></g><g class="f"><rect x="146.6" y="79.8" width="9.3" height="17.87"/></g><g class="f"><rect x="146.6" y="104.2" width="9.3" height="17.87"/></g><g class="f"><rect x="146.6" y="128.5" width="9.3" height="17.87"/></g><g class="f"><rect x="146.6" y="152.9" width="9.3" height="17.87"/></g><g class="f"><rect x="146.6" y="177.2" width="9.3" height="17.87"/></g><g class="f"><rect x="146.6" y="201.6" width="9.3" height="17.87"/></g><g class="f"><rect x="162.1" y="79.8" width="9.3" height="17.87"/></g><g class="f"><rect x="162.1" y="104.2" width="9.3" height="17.87"/></g><g class="f"><rect x="162.1" y="128.5" width="9.3" height="17.87"/></g><g class="f"><rect x="162.1" y="152.9" width="9.3" height="17.87"/></g><g class="f"><rect x="162.1" y="177.2" width="9.3" height="17.87"/></g><g class="f"><rect x="162.1" y="201.6" width="9.3" height="17.87"/></g><g class="f"><rect x="177.5" y="79.8" width="9.3" height="17.87"/></g><g class="f"><rect x="177.5" y="104.2" width="9.3" height="17.87"/></g><g class="f"><rect x="177.5" y="128.5" width="9.3" height="17.87"/></g><g class="f"><rect x="177.5" y="152.9" width="9.3" height="17.87"/></g><g class="f"><rect x="177.5" y="177.2" width="9.3" height="17.87"/></g><g class="f"><rect x="177.5" y="201.6" width="9.3" height="17.87"/></g><rect class="e" x="146.6" y="226.5" width="24.8" height="16.84"/><rect class="d" x="262.4" y="146.4" width="33.6" height="96.88"/><rect class="g" x="262.4" y="146.4" width="33.6" height="96.88"/><rect class="d" x="262.4" y="140.9" width="35.6" height="5.56"/><rect class="d" x="262.4" y="132.2" width="30.2" height="8.69"/><rect class="g" x="262.4" y="132.2" width="30.2" height="8.69"/><g class="f"><rect x="265.6" y="152.9" width="4.6" height="17.87"/></g><g class="f"><rect x="265.6" y="177.2" width="4.6" height="17.87"/></g><g class="f"><rect x="265.6" y="201.6" width="4.6" height="17.87"/></g><g class="f"><rect x="273.2" y="152.9" width="4.6" height="17.87"/></g><g class="f"><rect x="273.2" y="177.2" width="4.6" height="17.87"/></g><g class="f"><rect x="273.2" y="201.6" width="4.6" height="17.87"/></g><g class="f"><rect x="280.7" y="152.9" width="4.6" height="17.87"/></g><g class="f"><rect x="280.7" y="177.2" width="4.6" height="17.87"/></g><g class="f"><rect x="280.7" y="201.6" width="4.6" height="17.87"/></g><g class="f"><rect x="288.2" y="152.9" width="4.6" height="17.87"/></g><g class="f"><rect x="288.2" y="177.2" width="4.6" height="17.87"/></g><g class="f"><rect x="288.2" y="201.6" width="4.6" height="17.87"/></g><rect class="d" x="193.5" y="146.4" width="68.9" height="96.88"/><rect class="d" x="196.8" y="132.2" width="65.6" height="8.69"/><rect class="d" x="191.5" y="140.9" width="70.9" height="5.56"/><rect class="g" x="191.5" y="140.9" width="70.9" height="5.56"/><g class="f"><rect x="200.1" y="152.9" width="9.3" height="17.87"/></g><g class="f"><rect x="200.1" y="177.2" width="9.3" height="17.87"/></g><g class="f"><rect x="200.1" y="201.6" width="9.3" height="17.87"/></g><g class="f"><rect x="215.6" y="152.9" width="9.3" height="17.87"/></g><g class="f"><rect x="215.6" y="177.2" width="9.3" height="17.87"/></g><g class="f"><rect x="215.6" y="201.6" width="9.3" height="17.87"/></g><g class="f"><rect x="231" y="152.9" width="9.3" height="17.87"/></g><g class="f"><rect x="231" y="177.2" width="9.3" height="17.87"/></g><g class="f"><rect x="231" y="201.6" width="9.3" height="17.87"/></g><g class="f"><rect x="246.5" y="152.9" width="9.3" height="17.87"/></g><g class="f"><rect x="246.5" y="177.2" width="9.3" height="17.87"/></g><g class="f"><rect x="246.5" y="201.6" width="9.3" height="17.87"/></g></svg>